<svg viewBox="0 0 20 20" fill="currentColor" xmlns="http://www.w3.org/2000/svg">
<mask id="mask0_15963_9079" style="mask-type:alpha" maskUnits="userSpaceOnUse" x="0" y="0" width="20" height="20">
<rect width="20" height="20" fill="#D9D9D9"/>
</mask>
<g mask="url(#mask0_15963_9079)">
<path d="M10.8337 10.5V7.5C10.8337 7.26389 10.7538 7.06597 10.5941 6.90625C10.4344 6.74653 10.2364 6.66667 10.0003 6.66667C9.76422 6.66667 9.5663 6.74653 9.40658 6.90625C9.24685 7.06597 9.16699 7.26389 9.16699 7.5V10.8125C9.16699 10.9236 9.18783 11.0313 9.22949 11.1354C9.27116 11.2396 9.33366 11.3333 9.41699 11.4167L11.7503 13.75C11.9031 13.9028 12.0975 13.9792 12.3337 13.9792C12.5698 13.9792 12.7642 13.9028 12.917 13.75C13.0698 13.5972 13.1462 13.4028 13.1462 13.1667C13.1462 12.9306 13.0698 12.7361 12.917 12.5833L10.8337 10.5ZM10.0003 18.3333C8.95866 18.3333 7.98296 18.1354 7.07324 17.7396C6.16352 17.3438 5.37185 16.809 4.69824 16.1354C4.02463 15.4618 3.48991 14.6701 3.09408 13.7604C2.69824 12.8507 2.50033 11.875 2.50033 10.8333C2.50033 9.79167 2.69824 8.81597 3.09408 7.90625C3.48991 6.99653 4.02463 6.20486 4.69824 5.53125C5.37185 4.85764 6.16352 4.32292 7.07324 3.92708C7.98296 3.53125 8.95866 3.33333 10.0003 3.33333C11.042 3.33333 12.0177 3.53125 12.9274 3.92708C13.8371 4.32292 14.6288 4.85764 15.3024 5.53125C15.976 6.20486 16.5107 6.99653 16.9066 7.90625C17.3024 8.81597 17.5003 9.79167 17.5003 10.8333C17.5003 11.875 17.3024 12.8507 16.9066 13.7604C16.5107 14.6701 15.976 15.4618 15.3024 16.1354C14.6288 16.809 13.8371 17.3438 12.9274 17.7396C12.0177 18.1354 11.042 18.3333 10.0003 18.3333ZM1.70866 6.08333C1.55588 5.93056 1.47949 5.73611 1.47949 5.5C1.47949 5.26389 1.55588 5.06944 1.70866 4.91667L4.08366 2.54167C4.23644 2.38889 4.43088 2.3125 4.66699 2.3125C4.9031 2.3125 5.09755 2.38889 5.25033 2.54167C5.4031 2.69444 5.47949 2.88889 5.47949 3.125C5.47949 3.36111 5.4031 3.55556 5.25033 3.70833L2.87533 6.08333C2.72255 6.23611 2.5281 6.3125 2.29199 6.3125C2.05588 6.3125 1.86144 6.23611 1.70866 6.08333ZM18.292 6.08333C18.1392 6.23611 17.9448 6.3125 17.7087 6.3125C17.4725 6.3125 17.2781 6.23611 17.1253 6.08333L14.7503 3.70833C14.5975 3.55556 14.5212 3.36111 14.5212 3.125C14.5212 2.88889 14.5975 2.69444 14.7503 2.54167C14.9031 2.38889 15.0975 2.3125 15.3337 2.3125C15.5698 2.3125 15.7642 2.38889 15.917 2.54167L18.292 4.91667C18.4448 5.06944 18.5212 5.26389 18.5212 5.5C18.5212 5.73611 18.4448 5.93056 18.292 6.08333ZM10.0003 16.6667C11.6253 16.6667 13.0038 16.1007 14.1357 14.9688C15.2677 13.8368 15.8337 12.4583 15.8337 10.8333C15.8337 9.20833 15.2677 7.82986 14.1357 6.69792C13.0038 5.56597 11.6253 5 10.0003 5C8.37533 5 6.99685 5.56597 5.86491 6.69792C4.73296 7.82986 4.16699 9.20833 4.16699 10.8333C4.16699 12.4583 4.73296 13.8368 5.86491 14.9688C6.99685 16.1007 8.37533 16.6667 10.0003 16.6667Z"/>
</g>
</svg>
