<svg
  width="200"
  height="200"
  viewBox="0 0 200 200"
  fill="none"
  xmlns="http://www.w3.org/2000/svg"
>
  <g clip-path="url(#clip0_15965_26599)">
    <path
      d="M84.604 41.3014C91.4467 29.4496 108.553 29.4496 115.396 41.3014L171.207 137.968C178.049 149.82 169.496 164.635 155.811 164.635H44.1895C30.5041 164.635 21.9508 149.82 28.7935 137.968L84.604 41.3014Z"
      fill="url(#paint0_linear_15965_26599)"
    />
    <path
      d="M95.1873 80.3841V80.0062C95.1873 78.7464 95.5606 77.7637 96.3073 77.0582C97.0539 76.3527 98.2806 76 99.9873 76C101.587 76 102.787 76.3527 103.587 77.0582C104.441 77.7637 104.867 78.7212 104.867 79.9306V80.3841L104.147 117.271C104.147 118.33 103.774 119.161 103.027 119.766C102.281 120.371 101.267 120.673 99.9873 120.673C98.6539 120.673 97.6406 120.371 96.9473 119.766C96.2539 119.161 95.9073 118.33 95.9073 117.271L95.1873 80.3841ZM101.347 137H98.7073C97.7473 137 96.8673 136.672 96.0673 136.017C95.3206 135.362 94.9473 134.632 94.9473 133.825V130.651C94.9473 129.895 95.2939 129.164 95.9873 128.458C96.7339 127.753 97.6673 127.4 98.7873 127.4H101.107C101.907 127.4 102.734 127.703 103.587 128.307C104.494 128.862 104.947 129.618 104.947 130.575V133.976C104.947 134.732 104.547 135.413 103.747 136.017C103.001 136.672 102.201 137 101.347 137Z"
      fill="url(#paint1_linear_15965_26599)"
    />
  </g>
  <defs>
    <linearGradient
      id="paint0_linear_15965_26599"
      x1="71.1111"
      y1="38.3012"
      x2="142.222"
      y2="178.301"
      gradientUnits="userSpaceOnUse"
    >
      <stop stop-color="#EB5B73" />
      <stop offset="1" stop-color="#FF334B" />
    </linearGradient>
    <linearGradient
      id="paint1_linear_15965_26599"
      x1="97.5102"
      y1="75.3986"
      x2="101.717"
      y2="137.278"
      gradientUnits="userSpaceOnUse"
    >
      <stop stop-color="#FFF4F5" />
      <stop offset="0.730769" stop-color="#FFD1D4" />
      <stop offset="1" stop-color="#FFF4F5" stop-opacity="0.67" />
    </linearGradient>
    <clipPath id="clip0_15965_26599">
      <rect width="200" height="200" fill="white" />
    </clipPath>
  </defs>
</svg>
