<svg width="20" height="20" viewBox="0 0 20 20" fill="none" xmlns="http://www.w3.org/2000/svg">
<circle cx="10" cy="10" r="8" fill="#FF334B"/>
<mask id="mask0_1_5709" style="mask-type:alpha" maskUnits="userSpaceOnUse" x="5" y="5" width="10" height="10">
<rect x="5" y="5" width="10" height="10" fill="white"/>
</mask>
<g mask="url(#mask0_1_5709)">
<path d="M6.66683 12.0771C6.44461 12.0771 6.25016 11.9938 6.0835 11.8271C5.91683 11.6604 5.8335 11.466 5.8335 11.2438L5.8335 10.4104C5.8335 10.3618 5.83871 10.3097 5.84912 10.2542C5.85954 10.1986 5.87516 10.1465 5.896 10.0979L7.146 7.16043C7.2085 7.02154 7.31266 6.90349 7.4585 6.80626C7.60433 6.70904 7.75711 6.66043 7.91683 6.66043L11.2502 6.66043C11.4793 6.66043 11.6755 6.74203 11.8387 6.90522C12.0019 7.06842 12.0835 7.2646 12.0835 7.49376L12.0835 11.7333C12.0835 11.8445 12.0609 11.9504 12.0158 12.0511C11.9706 12.1518 11.9099 12.2403 11.8335 12.3167L9.57308 14.5667C9.46891 14.6639 9.34565 14.7229 9.20329 14.7438C9.06093 14.7646 8.92377 14.7403 8.79183 14.6708C8.65988 14.6014 8.5644 14.5042 8.50537 14.3792C8.44634 14.2542 8.43419 14.1257 8.46891 13.9938L8.93766 12.0771L6.66683 12.0771ZM13.7502 6.66043C13.9793 6.66043 14.1755 6.74203 14.3387 6.90522C14.5019 7.06842 14.5835 7.2646 14.5835 7.49376L14.5835 11.2438C14.5835 11.4729 14.5019 11.6691 14.3387 11.8323C14.1755 11.9955 13.9793 12.0771 13.7502 12.0771C13.521 12.0771 13.3248 11.9955 13.1616 11.8323C12.9984 11.6691 12.9168 11.4729 12.9168 11.2438L12.9168 7.49376C12.9168 7.2646 12.9984 7.06842 13.1616 6.90522C13.3248 6.74203 13.521 6.66043 13.7502 6.66043Z" fill="white"/>
</g>
</svg>
