<svg width="20" height="22" viewBox="0 0 20 22" fill="none" xmlns="http://www.w3.org/2000/svg">
<path d="M2.65054 21.5C2.07304 21.5 1.57866 21.2944 1.16741 20.8831C0.756162 20.4719 0.550537 19.9775 0.550537 19.4V4.7C0.550537 4.1225 0.756162 3.62812 1.16741 3.21688C1.57866 2.80562 2.07304 2.6 2.65054 2.6H3.70054V1.55C3.70054 1.2525 3.80116 1.00313 4.00241 0.801875C4.20366 0.600625 4.45304 0.5 4.75054 0.5C5.04804 0.5 5.29741 0.600625 5.49866 0.801875C5.69991 1.00313 5.80054 1.2525 5.80054 1.55V2.6H14.2005V1.55C14.2005 1.2525 14.3012 1.00313 14.5024 0.801875C14.7037 0.600625 14.953 0.5 15.2505 0.5C15.548 0.5 15.7974 0.600625 15.9987 0.801875C16.1999 1.00313 16.3005 1.2525 16.3005 1.55V2.6H17.3505C17.928 2.6 18.4224 2.80562 18.8337 3.21688C19.2449 3.62812 19.4505 4.1225 19.4505 4.7V19.4C19.4505 19.9775 19.2449 20.4719 18.8337 20.8831C18.4224 21.2944 17.928 21.5 17.3505 21.5H2.65054ZM2.65054 19.4H17.3505V8.9H2.65054V19.4Z" fill="#898EA3"/>
</svg>
