<svg viewBox="0 0 24 24" fill="currentColor" xmlns="http://www.w3.org/2000/svg">
<mask id="mask0_15719_12122" style="mask-type:alpha" maskUnits="userSpaceOnUse" x="0" y="0" width="24" height="24">
<rect width="24" height="24" fill="#D9D9D9"/>
</mask>
<g mask="url(#mask0_15719_12122)">
<path d="M5 21C4.45 21 3.97917 20.8042 3.5875 20.4125C3.19583 20.0208 3 19.55 3 19V5C3 4.45 3.19583 3.97917 3.5875 3.5875C3.97917 3.19583 4.45 3 5 3H19C19.55 3 20.0208 3.19583 20.4125 3.5875C20.8042 3.97917 21 4.45 21 5V19C21 19.55 20.8042 20.0208 20.4125 20.4125C20.0208 20.8042 19.55 21 19 21H5Z"/>
<path d="M8.45039 11.2498L10.6004 13.3998L15.5504 8.4498C15.7337 8.26647 15.9671 8.1748 16.2504 8.1748C16.5337 8.1748 16.7671 8.26647 16.9504 8.4498C17.1337 8.63314 17.2254 8.86647 17.2254 9.1498C17.2254 9.43314 17.1337 9.66647 16.9504 9.8498L11.3004 15.4998C11.1004 15.6998 10.8671 15.7998 10.6004 15.7998C10.3337 15.7998 10.1004 15.6998 9.90039 15.4998L7.05039 12.6498C6.86706 12.4665 6.77539 12.2331 6.77539 11.9498C6.77539 11.6665 6.86706 11.4331 7.05039 11.2498C7.23372 11.0665 7.46706 10.9748 7.75039 10.9748C8.03372 10.9748 8.26706 11.0665 8.45039 11.2498Z" fill="#49516D"/>
</g>
</svg>
