<svg width="36" height="36" viewBox="0 0 36 36" fill="none" xmlns="http://www.w3.org/2000/svg">
<path d="M17.9268 5.26953C20.1326 5.26953 21.9993 6.72546 22.6172 8.72852C23.3036 8.36328 24.0872 8.15625 24.9189 8.15625C27.6287 8.15646 29.8251 10.3527 29.8252 13.0625C29.8252 14.0172 29.5527 14.9084 29.0811 15.6621C30.9908 15.7262 32.5195 17.2953 32.5195 19.2207C32.5193 21.1865 30.9249 22.7803 28.959 22.7803C28.7032 22.7802 28.4533 22.7534 28.2129 22.7021C28.0817 23.3449 27.8867 23.9674 27.627 24.5693C27.102 25.786 26.3892 26.8442 25.4893 27.7441C24.5893 28.6441 23.531 29.3568 22.3145 29.8818C21.0978 30.4068 19.7974 30.6699 18.4141 30.6699C17.0307 30.6699 15.7304 30.4068 14.5137 29.8818C13.2971 29.3568 12.2388 28.6441 11.3389 27.7441C10.4389 26.8442 9.72616 25.786 9.20117 24.5693C8.90871 23.8915 8.6979 23.1875 8.56836 22.458C8.11739 22.6646 7.6154 22.7803 7.08691 22.7803C5.12117 22.7801 3.5276 21.1864 3.52734 19.2207C3.52734 17.3163 5.02276 15.7608 6.90332 15.665C6.43052 14.9107 6.15723 14.0184 6.15723 13.0625C6.15731 10.3526 8.35455 8.15625 11.0645 8.15625C11.8519 8.15632 12.5964 8.34117 13.2559 8.6709C13.8913 6.69757 15.7422 5.2697 17.9268 5.26953ZM15.2607 13.8027C15.2607 13.8027 13.6273 14.5231 12.0273 16.0693C10.4273 17.6156 10.4141 20.2365 10.4141 20.5195V20.6689C10.4141 22.9023 11.1892 24.7947 12.7393 26.3447C14.2892 27.8945 16.1809 28.6699 18.4141 28.6699C20.6473 28.6699 22.5389 27.8945 24.0889 26.3447C25.1031 25.3305 25.7842 24.1691 26.1348 22.8623C26.2608 22.4272 26.3511 21.9759 26.4023 21.5078C25.8058 20.8712 25.4404 20.0155 25.4404 19.0742C25.4404 18.8422 25.4625 18.6152 25.5049 18.3955C25.3549 18.421 25.2047 18.4431 25.0547 18.4609C24.7048 18.5026 24.3383 18.5234 23.9551 18.5234C22.4384 18.5234 21.0043 18.1979 19.6543 17.5479C18.9422 17.2049 18.2864 16.7894 17.6855 16.3027C17.2801 15.9445 16.8796 15.5567 16.5088 15.1787C16.4056 15.0629 16.304 14.9447 16.2051 14.8232C16.201 14.8332 16.1955 14.8426 16.1914 14.8525C15.8282 14.4685 15.5071 14.1053 15.2607 13.8027ZM28.0859 13.6309C28.4408 13.2275 28.0155 12.619 27.5146 12.8135L23.8604 14.2324C23.5504 14.3528 23.4347 14.7322 23.625 15.0049L24.6904 16.5293C24.881 16.8018 25.2764 16.8239 25.4961 16.5742L28.0859 13.6309Z" fill="#898EA3"/>
<path fill-rule="evenodd" clip-rule="evenodd" d="M14.6053 21.9072C14.8467 22.1462 15.1423 22.2657 15.492 22.2657C15.8417 22.2657 16.1373 22.1462 16.3788 21.9072C16.6202 21.6682 16.7409 21.3756 16.7409 21.0294C16.7409 20.6833 16.6202 20.3907 16.3788 20.1517C16.1373 19.9127 15.8417 19.7932 15.492 19.7932C15.1423 19.7932 14.8467 19.9127 14.6053 20.1517C14.3638 20.3907 14.2431 20.6833 14.2431 21.0294C14.2431 21.3756 14.3638 21.6682 14.6053 21.9072ZM20.6001 21.9072C20.8416 22.1462 21.1372 22.2657 21.4869 22.2657C21.8366 22.2657 22.1321 22.1462 22.3736 21.9072C22.6151 21.6682 22.7358 21.3756 22.7358 21.0294C22.7358 20.6833 22.6151 20.3907 22.3736 20.1517C22.1321 19.9127 21.8366 19.7932 21.4869 19.7932C21.1372 19.7932 20.8416 19.9127 20.6001 20.1517C20.3587 20.3907 20.2379 20.6833 20.2379 21.0294C20.2379 21.3756 20.3587 21.6682 20.6001 21.9072Z" fill="#898EA3"/>
<path d="M12.9887 21.5744C13.2621 21.5018 13.5434 21.6623 13.6168 21.933C13.6902 22.2036 13.528 22.482 13.2545 22.5546C12.922 22.643 12.6031 22.8617 12.3433 23.198C12.1713 23.4206 11.8495 23.463 11.6246 23.2928C11.3997 23.1225 11.3568 22.804 11.5288 22.5814C11.9021 22.0983 12.4025 21.7302 12.9887 21.5744ZM23.2966 21.933C23.3677 21.6707 23.6338 21.5119 23.899 21.5683L23.9247 21.5744L23.9794 21.5897C24.542 21.7533 25.0229 22.1134 25.3845 22.5814C25.5565 22.804 25.5137 23.1225 25.2888 23.2928C25.0709 23.4577 24.7621 23.4231 24.5866 23.2183L24.5701 23.198L24.5455 23.1668C24.2985 22.8584 24.0009 22.6538 23.69 22.5633L23.6588 22.5546L23.6335 22.5472C23.3755 22.4646 23.2255 22.1952 23.2966 21.933ZM12.227 19.6552C12.4034 19.436 12.7259 19.3998 12.9474 19.5744C13.0169 19.6292 13.0886 19.6773 13.1616 19.7188L13.1931 19.7361L13.216 19.7492C13.4475 19.8891 13.5299 20.1856 13.3991 20.4242C13.2682 20.6628 12.972 20.756 12.7274 20.64L12.7039 20.6281L12.6521 20.5995C12.5492 20.5412 12.4503 20.4759 12.3556 20.4045L12.3087 20.3683L12.2884 20.3515C12.0851 20.1738 12.0562 19.8676 12.227 19.6552ZM24.1261 19.5744C24.3476 19.3998 24.6701 19.436 24.8465 19.6552C25.0229 19.8744 24.9863 20.1937 24.7649 20.3683C24.6406 20.4662 24.5086 20.5535 24.3696 20.6281C24.1208 20.7618 23.8096 20.6705 23.6745 20.4242C23.5394 20.1779 23.6317 19.8699 23.8805 19.7362C23.9645 19.691 24.0467 19.637 24.1261 19.5744Z" fill="#898EA3"/>
</svg>
