<svg width="24" height="24" viewBox="0 0 24 24" fill="none" xmlns="http://www.w3.org/2000/svg">
<mask id="mask0_1_5932" style="mask-type:alpha" maskUnits="userSpaceOnUse" x="0" y="0" width="24" height="24">
<rect width="24" height="24" fill="#D9D9D9"/>
</mask>
<g mask="url(#mask0_1_5932)">
<path d="M4 21C3.45 21 2.97917 20.8042 2.5875 20.4125C2.19583 20.0208 2 19.55 2 19V7C2 6.45 2.19583 5.97917 2.5875 5.5875C2.97917 5.19583 3.45 5 4 5H7.15L8.4 3.65C8.58333 3.45 8.80417 3.29167 9.0625 3.175C9.32083 3.05833 9.59167 3 9.875 3H14.125C14.4083 3 14.6792 3.05833 14.9375 3.175C15.1958 3.29167 15.4167 3.45 15.6 3.65L16.85 5H20C20.55 5 21.0208 5.19583 21.4125 5.5875C21.8042 5.97917 22 6.45 22 7V19C22 19.55 21.8042 20.0208 21.4125 20.4125C21.0208 20.8042 20.55 21 20 21H4ZM15.45 13.4C15.35 14.2833 14.975 15.0208 14.325 15.6125C13.675 16.2042 12.9 16.5 12 16.5C11.8667 16.5 11.7333 16.4917 11.6 16.475C11.4667 16.4583 11.3333 16.4333 11.2 16.4C11.0667 16.3667 10.925 16.3667 10.775 16.4C10.625 16.4333 10.5 16.5 10.4 16.6C10.2167 16.7833 10.15 17.0042 10.2 17.2625C10.25 17.5208 10.3917 17.6917 10.625 17.775C10.8583 17.8583 11.0875 17.9167 11.3125 17.95C11.5375 17.9833 11.7667 18 12 18C13.3167 18 14.45 17.5542 15.4 16.6625C16.35 15.7708 16.8667 14.6667 16.95 13.35L17.175 13.55C17.325 13.6833 17.5 13.75 17.7 13.75C17.9 13.75 18.0667 13.6833 18.2 13.55C18.35 13.4 18.4292 13.2208 18.4375 13.0125C18.4458 12.8042 18.375 12.625 18.225 12.475L16.95 11.2C16.7667 11.0167 16.5333 10.925 16.25 10.925C15.9667 10.925 15.7333 11.0167 15.55 11.2L14.275 12.475C14.125 12.625 14.05 12.8 14.05 13C14.05 13.2 14.125 13.375 14.275 13.525C14.425 13.675 14.6 13.75 14.8 13.75C15 13.75 15.175 13.675 15.325 13.525L15.45 13.4ZM7.05 12.65L6.825 12.45C6.675 12.3167 6.5 12.25 6.3 12.25C6.1 12.25 5.93333 12.3167 5.8 12.45C5.65 12.6 5.57083 12.7792 5.5625 12.9875C5.55417 13.1958 5.625 13.375 5.775 13.525L7.05 14.8C7.23333 14.9833 7.46667 15.075 7.75 15.075C8.03333 15.075 8.26667 14.9833 8.45 14.8L9.725 13.525C9.875 13.375 9.95 13.2 9.95 13C9.95 12.8 9.875 12.625 9.725 12.475C9.575 12.325 9.4 12.25 9.2 12.25C9 12.25 8.825 12.325 8.675 12.475L8.55 12.6C8.65 11.7167 9.025 10.9792 9.675 10.3875C10.325 9.79583 11.1 9.5 12 9.5C12.1333 9.5 12.2667 9.50833 12.4 9.525C12.5333 9.54167 12.6667 9.56667 12.8 9.6C12.9333 9.63333 13.075 9.63333 13.225 9.6C13.375 9.56667 13.5 9.5 13.6 9.4C13.7833 9.21667 13.85 8.99583 13.8 8.7375C13.75 8.47917 13.6083 8.30833 13.375 8.225C13.1417 8.14167 12.9125 8.08333 12.6875 8.05C12.4625 8.01667 12.2333 8 12 8C10.6833 8 9.55 8.44583 8.6 9.3375C7.65 10.2292 7.13333 11.3333 7.05 12.65Z" fill="#1C1B1F"/>
</g>
</svg>
