<svg width="161" height="40" viewBox="0 0 161 40" fill="none" xmlns="http://www.w3.org/2000/svg">
<path d="M67.9564 10.7085L73.7897 23.2622L79.5883 10.711L79.941 9.94727H85.428L84.5673 11.814L74.9883 32.5752L74.9851 32.5822L74.9819 32.5887L71.8163 39.2487L71.4592 39.9996H65.9214L66.8072 38.1226L71.0256 29.1816L62.98 11.8159L62.1141 9.94727H67.6031L67.9564 10.7085ZM49.5115 9.94727C55.9526 9.94727 61.2283 15.2229 61.2283 21.664V33.3396H56.2127V31.2346C54.3216 32.558 52.0133 33.3396 49.5115 33.3396C43.0705 33.3396 37.8359 28.105 37.8359 21.664C37.8359 15.2297 43.0637 9.94727 49.5115 9.94727ZM97.3766 9.94727C102.105 9.94729 106.183 12.7751 107.992 16.809L108.541 18.0353L107.304 18.5588L105.166 19.4632L104.001 19.9566L103.462 18.8112C102.397 16.5428 100.096 14.9629 97.3766 14.9628C93.672 14.9628 90.7166 17.9417 90.7166 21.664C90.7166 25.3863 93.672 28.3651 97.3766 28.3651C100.094 28.3651 102.392 26.7885 103.459 24.4827L104.003 23.3084L105.185 23.832L107.323 24.7775L108.544 25.3177L107.987 26.5305C106.136 30.5549 102.104 33.3396 97.3766 33.3396C90.9356 33.3396 85.701 28.105 85.701 21.664C85.701 15.2297 90.9288 9.94727 97.3766 9.94727ZM123.755 9.94727C130.196 9.94731 135.472 15.223 135.472 21.664V33.3396H130.456V31.2346C128.565 32.5581 126.257 33.3396 123.755 33.3396C117.314 33.3396 112.08 28.105 112.08 21.664C112.08 15.2297 117.308 9.94727 123.755 9.94727ZM149.805 9.94727C152.229 9.94729 154.711 10.7192 156.606 12.3735C158.528 14.0517 159.754 16.5595 159.754 19.814V33.3396H154.78V19.8962C154.78 17.1694 152.573 14.9629 149.846 14.9628C148.418 14.9628 147.2 15.4167 146.338 16.209C145.49 16.988 144.886 18.1847 144.831 19.8782L144.913 32.015L144.922 33.3396H139.938V19.8551C139.938 16.5865 141.149 14.081 143.043 12.4011C144.91 10.7452 147.348 9.97042 149.71 9.94727H149.805ZM49.5115 14.9628C45.7981 14.9628 42.8104 17.9505 42.8104 21.664C42.8104 25.3774 45.7981 28.3651 49.5115 28.3651C53.225 28.3651 56.2127 25.3774 56.2127 21.664C56.2127 17.9505 53.225 14.9628 49.5115 14.9628ZM123.755 14.9628C120.042 14.9628 117.054 17.9505 117.054 21.664C117.054 25.3774 120.042 28.3651 123.755 28.3651C127.469 28.3651 130.456 25.3774 130.456 21.664C130.456 17.9506 127.469 14.9629 123.755 14.9628Z" fill="#191C28"/>
<path d="M13.6545 0C17.5095 0 20.8917 0.717536 23.8005 2.15323C26.6523 3.54409 28.8629 5.51485 30.432 8.06509L30.7305 8.56254C32.2433 11.144 33 14.1328 33 17.5289C33 21.0346 32.1933 24.1062 30.5812 26.7439C29.0042 29.3481 26.7443 31.3687 23.8005 32.8043C20.8917 34.24 17.5095 34.9576 13.6545 34.9576H5.83554C3.07002 34.9576 0.828125 32.7157 0.828125 29.9502V5.00741C0.828125 2.2419 3.07002 0 5.83554 0H13.6545ZM18.2504 5.75165C15.8567 6.28826 15.3396 4.3281 11.927 5.41183C9.03532 6.33044 9.24098 8.06339 8.20713 9.50317C6.99994 10.1708 5.14906 11.5721 5.32776 13.9847C5.52852 16.6941 7.55553 17.4873 8.60574 18.1994C10.4456 21.1765 13.2177 21.2432 13.2178 23.1578C13.2175 25.0719 11.5066 24.5561 8.20713 29.4547C7.63973 30.6341 7.66894 31.5704 8.60574 31.5704C8.83481 31.5704 9.62357 31.6024 10.6847 31.6499H13.6551C17.0704 31.6498 19.9112 30.9802 22.2713 29.7492L22.2855 29.7415C22.9165 29.4163 23.5034 29.0577 24.0498 28.6691C24.2609 28.499 24.4304 28.3648 24.5376 28.2821C25.3021 27.6916 23.7633 26.5653 22.4154 26.0882C21.0671 25.611 18.0569 24.6342 18.0566 23.1578C18.0566 21.4201 20.9605 22.4023 23.4574 19.1737C25.8395 19.1423 27.1952 16.5388 27.1954 14.6792C27.1954 13.0702 26.2806 11.4046 23.7636 10.5872C24.2593 9.47092 23.0851 4.66811 18.2504 5.75165Z" fill="#191C28"/>
<path d="M10.8603 15.1057C11.125 14.9382 11.4755 15.0166 11.6433 15.2812C11.8185 15.5578 12.1839 15.8861 12.69 16.123C13.1883 16.3563 13.7846 16.482 14.3991 16.4028C14.8486 16.3448 15.2221 16.2093 15.522 16.0403C15.795 15.8867 16.1411 15.983 16.2951 16.2557C16.4489 16.5287 16.3523 16.8747 16.0797 17.0288C15.654 17.2687 15.1405 17.4519 14.5443 17.5289C13.6861 17.6395 12.8733 17.4625 12.2087 17.1514C11.5518 16.8439 10.9999 16.3861 10.6847 15.8887C10.517 15.6238 10.5955 15.2735 10.8603 15.1057Z" fill="#191C28"/>
<path d="M12.8 13.7749C12.8987 13.4256 13.2619 13.2225 13.6112 13.3209C13.9606 13.4195 14.1644 13.7827 14.0659 14.1321L13.9294 14.6157C13.8309 14.9651 13.4677 15.1682 13.1183 15.0697C12.7688 14.971 12.5649 14.6079 12.6635 14.2585L12.8 13.7749Z" fill="#191C28"/>
</svg>
