<svg width="129" height="32" viewBox="0 0 129 32" fill="none" xmlns="http://www.w3.org/2000/svg">
<path d="M52.5651 8.56795L57.2317 18.6109L61.8706 8.57L62.1528 7.95898H66.5424L65.8538 9.45235L58.1907 26.0613L58.1881 26.067L58.1855 26.0721L55.6531 31.4001L55.3674 32.0009H50.9371L51.6458 30.4993L55.0205 23.3464L48.584 9.45389L47.8913 7.95898H52.2825L52.5651 8.56795ZM37.8092 7.95898C42.9621 7.95898 47.1826 12.1795 47.1826 17.3324V26.6728H43.1701V24.9888C41.6572 26.0476 39.8107 26.6728 37.8092 26.6728C32.6564 26.6728 28.4688 22.4852 28.4688 17.3324C28.4688 12.185 32.651 7.95898 37.8092 7.95898ZM76.1013 7.95898C79.8843 7.959 83.1467 10.2212 84.5934 13.4484L85.0327 14.4294L84.043 14.8482L82.3328 15.5718L81.4006 15.9664L80.9699 15.0502C80.1175 13.2354 78.277 11.9715 76.1013 11.9714C73.1376 11.9714 70.7733 14.3545 70.7733 17.3324C70.7733 20.3102 73.1376 22.6933 76.1013 22.6933C78.2748 22.6933 80.1138 21.432 80.9674 19.5873L81.4021 18.6479L82.3482 19.0667L84.0584 19.8232L85.0353 20.2554L84.5893 21.2256C83.109 24.4451 79.8835 26.6728 76.1013 26.6728C70.9485 26.6728 66.7608 22.4852 66.7608 17.3324C66.7608 12.185 70.9431 7.95898 76.1013 7.95898ZM97.2043 7.95898C102.357 7.95902 106.578 12.1796 106.578 17.3324V26.6728H102.565V24.9888C101.052 26.0476 99.2057 26.6728 97.2043 26.6728C92.0514 26.6728 87.8638 22.4852 87.8638 17.3324C87.8638 12.185 92.046 7.95898 97.2043 7.95898ZM118.044 7.95898C119.984 7.959 121.969 8.57651 123.485 9.89995C125.022 11.2425 126.003 13.2488 126.003 15.8524V26.6728H122.024V15.9181C122.024 13.7367 120.258 11.9715 118.077 11.9714C116.934 11.9714 115.96 12.3345 115.27 12.9684C114.592 13.5915 114.109 14.5489 114.065 15.9037L114.13 25.6132L114.137 26.6728H110.151V15.8852C110.151 13.2704 111.119 11.266 112.634 9.92205C114.128 8.59735 116.079 7.97751 117.968 7.95898H118.044ZM37.8092 11.9714C34.8385 11.9714 32.4483 14.3616 32.4483 17.3324C32.4483 20.3031 34.8385 22.6933 37.8092 22.6933C40.78 22.6933 43.1701 20.3031 43.1701 17.3324C43.1701 14.3616 40.78 11.9714 37.8092 11.9714ZM97.2043 11.9714C94.2335 11.9714 91.8433 14.3616 91.8433 17.3324C91.8433 20.3031 94.2335 22.6933 97.2043 22.6933C100.175 22.6932 102.565 20.3031 102.565 17.3324C102.565 14.3616 100.175 11.9715 97.2043 11.9714Z" fill="#191C28"/>
<path d="M10.5057 0C13.4052 0 15.9491 0.53969 18.1369 1.61954C20.2819 2.66566 21.9445 4.14796 23.1248 6.06611L23.3493 6.44026C24.4871 8.38189 25.0563 10.6299 25.0563 13.1842C25.0563 15.8211 24.4495 18.1313 23.237 20.1152C22.0508 22.074 20.351 23.5937 18.1369 24.6736C15.9491 25.7534 13.4052 26.2931 10.5057 26.2931H4.62469C2.54463 26.2931 0.858398 24.6069 0.858398 22.5268V3.76629C0.858398 1.68623 2.54463 0 4.62469 0H10.5057ZM13.9624 4.32606C12.1621 4.72967 11.7731 3.25535 9.20634 4.07047C7.03138 4.76139 7.18607 6.06483 6.40847 7.14774C5.50049 7.64989 4.10836 8.70387 4.24277 10.5185C4.39377 12.5564 5.91837 13.153 6.70827 13.6886C8.09209 15.9278 10.1772 15.978 10.1772 17.4179C10.1769 18.8577 8.89015 18.4697 6.40847 22.1541C5.9817 23.0413 6.00367 23.7455 6.70827 23.7455C6.88057 23.7455 7.47383 23.7695 8.27193 23.8052H10.5062C13.0749 23.8052 15.2116 23.3015 16.9867 22.3757L16.9974 22.3699C17.472 22.1253 17.9134 21.8556 18.3245 21.5633C18.4832 21.4353 18.6107 21.3344 18.6913 21.2722C19.2663 20.828 18.1089 19.9809 17.0951 19.622C16.081 19.2631 13.8169 18.5284 13.8167 17.4179C13.8167 16.111 16.0008 16.8498 17.8789 14.4213C19.6706 14.3977 20.6902 12.4396 20.6903 11.0409C20.6903 9.83069 20.0023 8.5779 18.1092 7.9631C18.482 7.12349 17.5988 3.51108 13.9624 4.32606Z" fill="#191C28"/>
<path d="M8.404 11.3616C8.60313 11.2356 8.86673 11.2947 8.99293 11.4937C9.12473 11.7017 9.3996 11.9486 9.78022 12.1268C10.1551 12.3023 10.6035 12.3968 11.0657 12.3373C11.4038 12.2936 11.6848 12.1917 11.9103 12.0646C12.1156 11.9491 12.376 12.0215 12.4918 12.2266C12.6075 12.4319 12.5348 12.6922 12.3297 12.8081C12.0096 12.9886 11.6234 13.1264 11.1749 13.1842C10.5294 13.2674 9.91807 13.1343 9.41821 12.9003C8.92414 12.669 8.50905 12.3247 8.27193 11.9505C8.1458 11.7514 8.20484 11.4878 8.404 11.3616Z" fill="#191C28"/>
<path d="M9.86297 10.3607C9.93717 10.098 10.2104 9.94524 10.4731 10.0192C10.7359 10.0934 10.8892 10.3665 10.8151 10.6294L10.7125 10.9931C10.6383 11.2559 10.3652 11.4086 10.1023 11.3345C9.8395 11.2604 9.68615 10.9872 9.7603 10.7244L9.86297 10.3607Z" fill="#191C28"/>
</svg>
