<svg width="20" height="20" viewBox="0 0 20 20" fill="none" xmlns="http://www.w3.org/2000/svg">
<circle cx="10" cy="10" r="8" fill="#3E89EA"/>
<mask id="mask0_1_5704" style="mask-type:alpha" maskUnits="userSpaceOnUse" x="5" y="5" width="10" height="10">
<rect x="5" y="5" width="10" height="10" fill="white"/>
</mask>
<g mask="url(#mask0_1_5704)">
<path d="M13.7502 8.33355C13.9724 8.33355 14.1668 8.41688 14.3335 8.58355C14.5002 8.75021 14.5835 8.94466 14.5835 9.16688V10.0002C14.5835 10.0488 14.5783 10.1009 14.5679 10.1565C14.5575 10.212 14.5418 10.2641 14.521 10.3127L13.271 13.2502C13.2085 13.3891 13.1043 13.5072 12.9585 13.6044C12.8127 13.7016 12.6599 13.7502 12.5002 13.7502H9.16683C8.93766 13.7502 8.74148 13.6686 8.57829 13.5054C8.41509 13.3422 8.3335 13.146 8.3335 12.9169V8.6773C8.3335 8.56619 8.35607 8.46028 8.4012 8.35959C8.44634 8.25889 8.50711 8.17035 8.5835 8.09396L10.8439 5.84396C10.9481 5.74674 11.0713 5.68771 11.2137 5.66688C11.3561 5.64605 11.4932 5.67035 11.6252 5.7398C11.7571 5.80924 11.8526 5.90646 11.9116 6.03146C11.9706 6.15646 11.9828 6.28494 11.9481 6.41688L11.4793 8.33355H13.7502ZM6.66683 13.7502C6.43766 13.7502 6.24148 13.6686 6.07829 13.5054C5.91509 13.3422 5.8335 13.146 5.8335 12.9169V9.16688C5.8335 8.93771 5.91509 8.74153 6.07829 8.57834C6.24148 8.41514 6.43766 8.33355 6.66683 8.33355C6.896 8.33355 7.09218 8.41514 7.25537 8.57834C7.41857 8.74153 7.50016 8.93771 7.50016 9.16688V12.9169C7.50016 13.146 7.41857 13.3422 7.25537 13.5054C7.09218 13.6686 6.896 13.7502 6.66683 13.7502Z" fill="white"/>
</g>
</svg>
