<svg width="24" height="25" viewBox="0 0 24 25" fill="none" xmlns="http://www.w3.org/2000/svg">
<g clip-path="url(#clip0_15561_9482)">
<path d="M10.6514 7.06446H13.1774C13.217 6.99735 13.2411 6.92219 13.2478 6.84453C13.2545 6.76687 13.2436 6.68869 13.216 6.61579L10.652 3.47913L10.6514 7.06446Z" fill="#E0AA94"/>
<path d="M8.53585 15.6753C8.50206 15.4567 8.45621 15.2402 8.39852 15.0267C7.98518 13.5447 7.63852 12.9173 7.78652 11.364C7.97985 10.308 7.96852 8.18866 10.7752 8.51866C11.5165 8.60599 12.6705 9.13666 13.3312 9.12533C13.7092 9.11866 13.9845 8.35399 14.0092 8.09933C14.0432 7.74866 13.4325 7.15266 13.1772 7.06333C12.5842 6.87134 11.9883 6.68821 11.3898 6.51399C10.6972 6.31333 10.7332 5.37733 10.6892 5.04399C10.6798 4.96635 10.6933 4.88765 10.7281 4.81762C10.763 4.74759 10.8176 4.68931 10.8852 4.64999C11.0252 4.56733 11.1352 4.64466 11.2712 4.73333L11.8612 5.16533C12.1925 5.44933 11.2785 5.99199 11.5258 6.08266C11.5258 6.08266 12.6958 6.52199 13.1972 6.61333C13.4718 6.66333 14.4198 5.59399 14.4752 4.96666C14.5185 4.47333 12.2098 2.24466 10.5638 1.37933C9.98518 1.07533 9.64585 0.89866 9.26452 0.91666C8.80918 0.937994 8.66585 1.11799 8.09918 1.60333C5.53452 3.79733 3.04518 8.54199 2.67985 9.59199C1.18252 13.8993 0.948516 16.1687 0.895183 17.4507C0.861927 17.8404 0.845023 18.2315 0.844516 18.6227C0.887849 18.6227 0.177849 21.956 0.844516 22.6227C1.51118 23.2893 4.39518 23.2893 4.39518 23.2893C11.0618 25.9487 23.4418 25.2547 23.4418 18.4673C23.4418 10.3527 10.8998 11.4293 8.53585 15.6753Z" fill="#F7DECE"/>
<path d="M13.7535 22.2096C11.6468 21.9883 10.0015 20.9556 9.90881 20.8963C9.75967 20.8013 9.65439 20.6509 9.61613 20.4782C9.57788 20.3056 9.60977 20.1248 9.70481 19.9756C9.79985 19.8265 9.95024 19.7212 10.1229 19.683C10.2956 19.6447 10.4763 19.6766 10.6255 19.7716C10.6521 19.7883 13.2941 21.433 15.8561 20.7496C17.2728 20.3723 18.4341 19.3396 19.3075 17.6823C19.3899 17.5258 19.5311 17.4085 19.7 17.3561C19.8689 17.3037 20.0517 17.3206 20.2081 17.403C20.3646 17.4854 20.482 17.6265 20.5343 17.7954C20.5867 17.9644 20.5699 18.1472 20.4875 18.3036C19.4308 20.3076 17.9848 21.5656 16.1895 22.041C15.3515 22.2623 14.5215 22.2903 13.7535 22.2096Z" fill="#E0AA94"/>
</g>
<defs>
<clipPath id="clip0_15561_9482">
<rect width="24" height="24" fill="white" transform="translate(0 0.824219)"/>
</clipPath>
</defs>
</svg>
