<svg width="32" height="32" viewBox="0 0 32 32" fill="none" xmlns="http://www.w3.org/2000/svg">
<path d="M16.0127 23.6113C16.1563 24.0323 16.5605 24.3075 17.0049 24.2871C17.4494 24.2666 17.8276 23.9551 17.9316 23.5225L19.2656 17.9736L19.4287 18.2393C19.6105 18.5356 19.9336 18.7167 20.2812 18.7168H27.3027C23.8796 24.2023 16.8408 28.1019 16.4453 28.3145C16.3086 28.3891 16.1552 28.4287 16 28.4287C15.8449 28.4287 15.6923 28.389 15.5557 28.3145C15.1637 28.1039 8.12239 24.2037 4.69824 18.7168H11.7383C12.195 18.7166 12.5939 18.4064 12.707 17.9639L13.2988 15.6475L16.0127 23.6113ZM21.8672 5.57129C23.7961 5.5735 25.6458 6.35228 27.0098 7.73633C28.3736 9.12036 29.1414 10.9968 29.1436 12.9541C29.1435 14.319 28.8141 15.6402 28.2656 16.8984C28.1294 16.8027 27.9684 16.7394 27.7939 16.7217L27.6914 16.7168H20.8418L19.71 14.8721C19.4985 14.5277 19.1004 14.344 18.7012 14.4072C18.3519 14.4626 18.0621 14.6976 17.9316 15.0186L17.8857 15.1611L16.793 19.7012L14.1084 11.8223C13.9656 11.4038 13.5648 11.1284 13.123 11.1455C12.7364 11.1606 12.398 11.3965 12.2461 11.7422L12.1934 11.8965L10.9609 16.7168H3.6543C3.15296 15.5135 2.85744 14.253 2.85742 12.9541C2.8596 10.9968 3.62726 9.12037 4.99121 7.73633C6.35513 6.35237 8.20398 5.57353 10.1328 5.57129C12.556 5.57129 14.6775 7.21269 16 9C17.3224 7.21278 19.4442 5.57149 21.8672 5.57129Z" fill="#FF334B"/>
</svg>
