<svg viewBox="0 0 16 16" fill="currentColor" xmlns="http://www.w3.org/2000/svg">
<mask id="mask0_15673_10844" style="mask-type:alpha" maskUnits="userSpaceOnUse" x="0" y="0" width="16" height="16">
<rect width="16" height="16"/>
</mask>
<g mask="url(#mask0_15673_10844)">
<path d="M8.00033 12.9C9.35588 11.6556 10.3614 10.525 11.017 9.50837C11.6725 8.49171 12.0003 7.58893 12.0003 6.80004C12.0003 5.58893 11.6142 4.59726 10.842 3.82504C10.0698 3.05282 9.12255 2.66671 8.00033 2.66671C6.8781 2.66671 5.93088 3.05282 5.15866 3.82504C4.38644 4.59726 4.00033 5.58893 4.00033 6.80004C4.00033 7.58893 4.3281 8.49171 4.98366 9.50837C5.63921 10.525 6.64477 11.6556 8.00033 12.9ZM8.00033 14.2167C7.84477 14.2167 7.68921 14.1889 7.53366 14.1334C7.3781 14.0778 7.23921 13.9945 7.11699 13.8834C6.39477 13.2167 5.75588 12.5667 5.20033 11.9334C4.64477 11.3 4.18088 10.6862 3.80866 10.0917C3.43644 9.49726 3.1531 8.92504 2.95866 8.37504C2.76421 7.82504 2.66699 7.30004 2.66699 6.80004C2.66699 5.13337 3.2031 3.8056 4.27533 2.81671C5.34755 1.82782 6.58921 1.33337 8.00033 1.33337C9.41144 1.33337 10.6531 1.82782 11.7253 2.81671C12.7975 3.8056 13.3337 5.13337 13.3337 6.80004C13.3337 7.30004 13.2364 7.82504 13.042 8.37504C12.8475 8.92504 12.5642 9.49726 12.192 10.0917C11.8198 10.6862 11.3559 11.3 10.8003 11.9334C10.2448 12.5667 9.60588 13.2167 8.88366 13.8834C8.76144 13.9945 8.62255 14.0778 8.46699 14.1334C8.31144 14.1889 8.15588 14.2167 8.00033 14.2167ZM8.00033 8.00004C8.36699 8.00004 8.68088 7.86949 8.94199 7.60837C9.2031 7.34726 9.33366 7.03337 9.33366 6.66671C9.33366 6.30004 9.2031 5.98615 8.94199 5.72504C8.68088 5.46393 8.36699 5.33337 8.00033 5.33337C7.63366 5.33337 7.31977 5.46393 7.05866 5.72504C6.79755 5.98615 6.66699 6.30004 6.66699 6.66671C6.66699 7.03337 6.79755 7.34726 7.05866 7.60837C7.31977 7.86949 7.63366 8.00004 8.00033 8.00004Z" />
</g>
</svg>
