<svg width="24" height="24" viewBox="0 0 24 24" fill="none" xmlns="http://www.w3.org/2000/svg">
<mask id="mask0_15719_10099" style="mask-type:alpha" maskUnits="userSpaceOnUse" x="0" y="0" width="24" height="24">
<rect width="24" height="24" fill="#D9D9D9"/>
</mask>
<g mask="url(#mask0_15719_10099)">
<path d="M4.22222 22C3.61111 22 3.08796 21.7824 2.65278 21.3472C2.21759 20.912 2 20.3889 2 19.7778V4.22222C2 3.61111 2.21759 3.08796 2.65278 2.65278C3.08796 2.21759 3.61111 2 4.22222 2H19.7778C20.3889 2 20.912 2.21759 21.3472 2.65278C21.7824 3.08796 22 3.61111 22 4.22222V19.7778C22 20.3889 21.7824 20.912 21.3472 21.3472C20.912 21.7824 20.3889 22 19.7778 22H4.22222Z" fill="#E9EAEF"/>
<path d="M6.85714 12.8571H11.1429H12.8571H17.1429C17.3857 12.8571 17.5893 12.775 17.7536 12.6107C17.9179 12.4464 18 12.2428 18 12C18 11.7571 17.9179 11.5535 17.7536 11.3893C17.5893 11.225 17.3857 11.1428 17.1429 11.1428H12.8571H11.1429H6.85714C6.61429 11.1428 6.41071 11.225 6.24643 11.3893C6.08214 11.5535 6 11.7571 6 12C6 12.2428 6.08214 12.4464 6.24643 12.6107C6.41071 12.775 6.61429 12.8571 6.85714 12.8571Z" fill="#49516D"/>
</g>
</svg>
