<svg width="48" height="48" viewBox="0 0 48 48" fill="none" xmlns="http://www.w3.org/2000/svg">
<mask id="mask0_13630_20601" style="mask-type:alpha" maskUnits="userSpaceOnUse" x="0" y="0" width="48" height="48">
<rect width="48" height="48" fill="#D9D9D9"/>
</mask>
<g mask="url(#mask0_13630_20601)">
<path d="M10 42C8.9 42 7.95833 41.6083 7.175 40.825C6.39167 40.0417 6 39.1 6 38V10C6 8.9 6.39167 7.95833 7.175 7.175C7.95833 6.39167 8.9 6 10 6H24C24.5667 6 25.0417 6.19167 25.425 6.575C25.8083 6.95833 26 7.43333 26 8C26 8.56667 25.8083 9.04167 25.425 9.425C25.0417 9.80833 24.5667 10 24 10H10V38H38V24C38 23.4333 38.1917 22.9583 38.575 22.575C38.9583 22.1917 39.4333 22 40 22C40.5667 22 41.0417 22.1917 41.425 22.575C41.8083 22.9583 42 23.4333 42 24V38C42 39.1 41.6083 40.0417 40.825 40.825C40.0417 41.6083 39.1 42 38 42H10ZM12 34H36L28.5 24L22.5 32L18 26L12 34ZM34 14H32C31.4333 14 30.9583 13.8083 30.575 13.425C30.1917 13.0417 30 12.5667 30 12C30 11.4333 30.1917 10.9583 30.575 10.575C30.9583 10.1917 31.4333 10 32 10H34V8C34 7.43333 34.1917 6.95833 34.575 6.575C34.9583 6.19167 35.4333 6 36 6C36.5667 6 37.0417 6.19167 37.425 6.575C37.8083 6.95833 38 7.43333 38 8V10H40C40.5667 10 41.0417 10.1917 41.425 10.575C41.8083 10.9583 42 11.4333 42 12C42 12.5667 41.8083 13.0417 41.425 13.425C41.0417 13.8083 40.5667 14 40 14H38V16C38 16.5667 37.8083 17.0417 37.425 17.425C37.0417 17.8083 36.5667 18 36 18C35.4333 18 34.9583 17.8083 34.575 17.425C34.1917 17.0417 34 16.5667 34 16V14Z" fill="#CFD2DD"/>
</g>
</svg>
