<svg width="24" height="24" viewBox="0 0 24 24" fill="none" xmlns="http://www.w3.org/2000/svg">
<mask id="mask0_13710_22383" style="mask-type:alpha" maskUnits="userSpaceOnUse" x="0" y="0" width="24" height="24">
<rect width="24" height="24" fill="#D9D9D9"/>
</mask>
<g mask="url(#mask0_13710_22383)">
<path d="M12 22C10.6167 22 9.31667 21.7375 8.1 21.2125C6.88333 20.6875 5.825 19.975 4.925 19.075C4.025 18.175 3.3125 17.1167 2.7875 15.9C2.2625 14.6833 2 13.3833 2 12C2 10.6167 2.2625 9.31667 2.7875 8.1C3.3125 6.88333 4.025 5.825 4.925 4.925C5.825 4.025 6.88333 3.3125 8.1 2.7875C9.31667 2.2625 10.6167 2 12 2C13.3833 2 14.6833 2.2625 15.9 2.7875C17.1167 3.3125 18.175 4.025 19.075 4.925C19.975 5.825 20.6875 6.88333 21.2125 8.1C21.7375 9.31667 22 10.6167 22 12C22 13.3833 21.7375 14.6833 21.2125 15.9C20.6875 17.1167 19.975 18.175 19.075 19.075C18.175 19.975 17.1167 20.6875 15.9 21.2125C14.6833 21.7375 13.3833 22 12 22Z" fill="#DEE0E8"/>
<path d="M14.9 16.2998L12 13.3998L9.10005 16.2998C8.91672 16.4831 8.68338 16.5748 8.40005 16.5748C8.11672 16.5748 7.88338 16.4831 7.70005 16.2998C7.51672 16.1165 7.42505 15.8831 7.42505 15.5998C7.42505 15.3165 7.51672 15.0831 7.70005 14.8998L10.6 11.9998L7.70005 9.0998C7.51672 8.91647 7.42505 8.68314 7.42505 8.3998C7.42505 8.11647 7.51672 7.88314 7.70005 7.6998C7.88338 7.51647 8.11672 7.4248 8.40005 7.4248C8.68338 7.4248 8.91672 7.51647 9.10005 7.6998L12 10.5998L14.9 7.6998C15.0834 7.51647 15.3167 7.4248 15.6 7.4248C15.8834 7.4248 16.1167 7.51647 16.3 7.6998C16.4834 7.88314 16.575 8.11647 16.575 8.3998C16.575 8.68314 16.4834 8.91647 16.3 9.0998L13.4 11.9998L16.3 14.8998C16.4834 15.0831 16.575 15.3165 16.575 15.5998C16.575 15.8831 16.4834 16.1165 16.3 16.2998C16.1167 16.4831 15.8834 16.5748 15.6 16.5748C15.3167 16.5748 15.0834 16.4831 14.9 16.2998Z" fill="#49516D"/>
</g>
</svg>
