<svg width="36" height="36" viewBox="0 0 36 36" fill="none" xmlns="http://www.w3.org/2000/svg">
<path d="M22.0037 6.00342C22.74 6.00342 23.3367 6.60005 23.3367 7.33643V17.6479L17.823 16.3491C17.1765 16.1968 16.4597 16.9136 16.6121 17.5601L18.4919 25.5366H7.33667C6.60049 25.5364 6.00366 24.9389 6.00366 24.2026V7.33643C6.00366 6.60019 6.60049 6.00366 7.33667 6.00342H22.0037ZM9.00464 12.9321C8.52599 12.9321 8.13745 13.3207 8.13745 13.7993C8.13749 14.2779 8.52602 14.6655 9.00464 14.6655H20.3376C20.8162 14.6654 21.2038 14.2779 21.2039 13.7993C21.2039 13.3207 20.8162 12.9322 20.3376 12.9321H9.00464ZM9.00464 8.99951C8.52615 8.99951 8.1377 9.38729 8.13745 9.86572C8.13745 10.3444 8.52599 10.7329 9.00464 10.7329H20.3376C20.8162 10.7328 21.2039 10.3443 21.2039 9.86572C21.2036 9.38734 20.8161 8.99959 20.3376 8.99951H9.00464Z" fill="#898EA3"/>
<path d="M29.794 25.3288C29.9222 25.4571 29.905 25.6823 29.7554 25.8319L26.302 29.2852C26.1524 29.4348 25.9272 29.4521 25.7989 29.3238L20.4541 23.979C20.3652 23.8901 20.3014 23.7787 20.2674 23.6533L19.059 19.1966C18.9667 18.8563 19.3264 18.4966 19.6667 18.5889L24.1235 19.7972C24.2489 19.8312 24.3603 19.8951 24.4491 19.9839L29.794 25.3288Z" fill="#DEE0E8"/>
</svg>
