<svg width="24" height="24" viewBox="0 0 24 24" fill="none" xmlns="http://www.w3.org/2000/svg">
<mask id="mask0_1_5935" style="mask-type:alpha" maskUnits="userSpaceOnUse" x="0" y="0" width="24" height="24">
<rect width="24" height="24" fill="#D9D9D9"/>
</mask>
<g mask="url(#mask0_1_5935)">
<path d="M11.5751 18.15L11.0001 17.375C10.9001 17.2417 10.7668 17.175 10.6001 17.175C10.4334 17.175 10.3001 17.2417 10.2001 17.375L9.60011 18.2C9.46678 18.3667 9.45011 18.5417 9.55011 18.725C9.65011 18.9083 9.80011 19 10.0001 19H13.9751C14.1918 19 14.3459 18.9083 14.4376 18.725C14.5293 18.5417 14.5084 18.3667 14.3751 18.2L13.4001 16.925C13.3001 16.7917 13.1709 16.7208 13.0126 16.7125C12.8543 16.7042 12.7251 16.7667 12.6251 16.9L11.5751 18.15ZM8.00011 22C7.45011 22 6.97928 21.8042 6.58761 21.4125C6.19594 21.0208 6.00011 20.55 6.00011 20V12C6.00011 11.45 6.19594 10.9792 6.58761 10.5875C6.97928 10.1958 7.45011 10 8.00011 10H16.0001C16.5501 10 17.0209 10.1958 17.4126 10.5875C17.8043 10.9792 18.0001 11.45 18.0001 12V20C18.0001 20.55 17.8043 21.0208 17.4126 21.4125C17.0209 21.8042 16.5501 22 16.0001 22H8.00011ZM20.0001 8H16.0001C15.7168 8 15.4793 7.90417 15.2876 7.7125C15.0959 7.52083 15.0001 7.28333 15.0001 7C15.0001 6.71667 15.0959 6.47917 15.2876 6.2875C15.4793 6.09583 15.7168 6 16.0001 6H16.9001C16.2501 5.35 15.5001 4.85417 14.6501 4.5125C13.8001 4.17083 12.9168 4 12.0001 4C10.8168 4 9.70844 4.27917 8.67511 4.8375C7.64178 5.39583 6.80844 6.15833 6.17511 7.125C5.94178 7.45833 5.69178 7.65 5.42511 7.7C5.15844 7.75 4.90844 7.71667 4.67511 7.6C4.44178 7.48333 4.27928 7.30833 4.18761 7.075C4.09594 6.84167 4.11678 6.61667 4.25011 6.4C5.05011 5.05 6.13761 3.97917 7.51261 3.1875C8.88761 2.39583 10.3834 2 12.0001 2C13.3668 2 14.6626 2.29167 15.8876 2.875C17.1126 3.45833 18.1501 4.28333 19.0001 5.35V3C19.0001 2.71667 19.0959 2.47917 19.2876 2.2875C19.4793 2.09583 19.7168 2 20.0001 2C20.2834 2 20.5209 2.09583 20.7126 2.2875C20.9043 2.47917 21.0001 2.71667 21.0001 3V7C21.0001 7.28333 20.9043 7.52083 20.7126 7.7125C20.5209 7.90417 20.2834 8 20.0001 8Z" fill="#1C1B1F"/>
</g>
</svg>
