<svg width="36" height="36" viewBox="0 0 36 36" fill="none" xmlns="http://www.w3.org/2000/svg">
<path d="M28.4912 6.00342C29.3419 6.00344 30.032 6.69276 30.0322 7.54346V21.3579C29.8925 21.2158 29.7203 21.0954 29.5156 21.0073L16.5645 15.437C15.5087 14.9832 14.3323 15.7575 14.332 16.9067V24.3364H7.53906C6.6882 24.3364 5.99805 23.6463 5.99805 22.7954V7.54346C5.99822 6.69275 6.68831 6.00342 7.53906 6.00342H28.4912ZM9.39453 8.06104C9.03857 7.90096 8.61169 8.03332 8.41211 8.37842C8.21285 8.72374 8.3114 9.15981 8.62793 9.38818L8.69336 9.43115L17.6299 14.5923C17.8681 14.7297 18.1622 14.7297 18.4004 14.5923L27.3359 9.43115C27.7041 9.21828 27.8299 8.7467 27.6172 8.37842C27.4044 8.01044 26.9336 7.88472 26.5654 8.09717L18.0146 13.0356L9.46484 8.09717L9.39453 8.06104Z"/>
<mask id="mask0_8_9221" style="mask-type:alpha" maskUnits="userSpaceOnUse" x="14" y="14" width="20" height="20">
<rect x="14.2036" y="14.5273" width="18.8" height="18.8"/>
</mask>
<g mask="url(#mask0_8_9221)">
<path d="M17.5078 29.7568C17.2467 29.8613 16.9986 29.8384 16.7636 29.6883C16.5286 29.5382 16.4111 29.3195 16.4111 29.0322V25.5072L22.6778 23.9406L16.4111 22.3739V18.8489C16.4111 18.5617 16.5286 18.343 16.7636 18.1929C16.9986 18.0427 17.2467 18.0199 17.5078 18.1243L29.5711 23.216C29.8975 23.3596 30.0607 23.6011 30.0607 23.9406C30.0607 24.28 29.8975 24.5216 29.5711 24.6652L17.5078 29.7568Z" />
</g>
</svg>
