<svg width="20" height="20" viewBox="0 0 20 20" fill="none" xmlns="http://www.w3.org/2000/svg">
<path d="M15.7939 3.32617C16.0277 3.32625 16.2333 3.4077 16.3965 3.57129L16.4531 3.63477C16.5781 3.78673 16.6406 3.96931 16.6406 4.17383V8.02441C16.6406 8.29572 16.5471 8.53287 16.3584 8.72168C16.1696 8.91022 15.9322 9.00478 15.6611 9.00488H11.8096C11.576 9.0048 11.3704 8.92299 11.207 8.75977C11.0438 8.59631 10.963 8.39092 10.9629 8.15723C10.9629 7.92358 11.0438 7.71804 11.207 7.55469L11.2705 7.49707C11.4225 7.37227 11.6052 7.30964 11.8096 7.30957H14.2217C13.8021 6.64696 13.2545 6.11556 12.5771 5.71289C11.8022 5.25198 10.956 5.02154 10.0342 5.02148C8.6481 5.02148 7.47586 5.50363 6.50684 6.47266C5.53781 7.44168 5.05566 8.61392 5.05566 10C5.05574 11.3859 5.538 12.5574 6.50684 13.5264C7.47586 14.4954 8.6481 14.9785 10.0342 14.9785C11 14.9785 11.8808 14.7249 12.6816 14.2188C13.484 13.7118 14.09 13.0374 14.5029 12.1924L14.5059 12.1875C14.6091 11.9896 14.7654 11.8456 14.9707 11.7646L15.125 11.7188C15.2782 11.6875 15.434 11.6979 15.5889 11.749C15.8233 11.8228 15.9928 11.982 16.085 12.2109C16.1752 12.436 16.1693 12.6636 16.0586 12.876C15.508 14.0241 14.6947 14.945 13.6221 15.6348C12.5455 16.3271 11.3479 16.6728 10.0342 16.6729C8.17511 16.6729 6.59316 16.0256 5.30078 14.7334C4.00824 13.4412 3.36035 11.8597 3.36035 10.001C3.36035 8.14228 4.0083 6.56066 5.30078 5.26758C6.59317 3.97445 8.17502 3.32617 10.0342 3.32617C11.074 3.32622 12.0598 3.55804 12.9883 4.02051C13.7452 4.39776 14.3968 4.90358 14.9463 5.5332V4.17383C14.9463 3.94018 15.0271 3.7346 15.1904 3.57129L15.2539 3.51367C15.406 3.38853 15.5893 3.32617 15.7939 3.32617Z" />
</svg>
