<svg viewBox="0 0 24 24" fill="currentColor" xmlns="http://www.w3.org/2000/svg">
<path d="M11.0571 3.8999C15.0101 3.89994 18.2152 7.10414 18.2153 11.0571C18.2153 12.7167 17.6475 14.2426 16.6997 15.4565C16.7279 15.4746 16.7553 15.4946 16.7817 15.5161L16.8511 15.5786L19.9077 18.6343C20.2592 18.9857 20.2592 19.5562 19.9077 19.9077C19.5562 20.2592 18.9857 20.2592 18.6343 19.9077L15.5786 16.8511L15.5161 16.7817C15.4946 16.7553 15.4746 16.7279 15.4565 16.6997C14.2426 17.6475 12.7167 18.2153 11.0571 18.2153C7.10414 18.2152 3.89994 15.0101 3.8999 11.0571C3.90001 7.10419 7.10419 3.90001 11.0571 3.8999ZM11.0571 5.69971C8.0983 5.69981 5.69981 8.0983 5.69971 11.0571C5.69974 14.016 8.09826 16.4154 11.0571 16.4155C14.0161 16.4155 16.4155 14.0161 16.4155 11.0571C16.4154 8.09826 14.016 5.69974 11.0571 5.69971Z" />
</svg>
