<svg width="38" height="40" viewBox="0 0 38 40" fill="none" xmlns="http://www.w3.org/2000/svg">
<path d="M15.5046 0C19.9157 0 23.7857 0.821036 27.1141 2.46382C30.3773 4.0553 32.9067 6.31034 34.7022 9.22844L35.0437 9.79764C36.7747 12.7515 37.6406 16.1713 37.6406 20.0573C37.6406 24.0688 36.7176 27.5834 34.873 30.6015C33.0684 33.5814 30.4825 35.8934 27.1141 37.5362C23.7857 39.179 19.9157 40 15.5046 40H6.55783C3.3934 40 0.828125 37.4347 0.828125 34.2703V5.7297C0.828125 2.56528 3.3934 0 6.55783 0H15.5046ZM20.7634 6.58129C18.0245 7.1953 17.4328 4.95241 13.5279 6.19246C10.2192 7.24356 10.4545 9.22649 9.27151 10.8739C7.89019 11.6379 5.77232 13.2413 5.9768 16.0019C6.20652 19.1022 8.52592 20.0097 9.72761 20.8246C11.8328 24.2311 15.0049 24.3074 15.0049 26.4981C15.0045 28.6884 13.0469 28.0982 9.27151 33.7033C8.62226 35.0529 8.65569 36.1242 9.72761 36.1243C9.98973 36.1243 10.8923 36.1608 12.1064 36.2152H15.5054C19.4132 36.2151 22.6638 35.4489 25.3644 34.0404L25.3806 34.0315C26.1026 33.6594 26.7741 33.2491 27.3994 32.8044C27.6409 32.6098 27.8349 32.4563 27.9575 32.3616C28.8323 31.6859 27.0716 30.3972 25.5292 29.8512C23.9865 29.3052 20.542 28.1875 20.5417 26.4981C20.5417 24.5098 23.8645 25.6337 26.7216 21.9393C29.4473 21.9034 30.9985 18.9245 30.9987 16.7966C30.9987 14.9555 29.9519 13.0497 27.072 12.1144C27.6391 10.837 26.2956 5.34145 20.7634 6.58129Z" />
<path d="M12.3073 17.2846C12.6103 17.0929 13.0113 17.1827 13.2033 17.4855C13.4038 17.8019 13.822 18.1776 14.401 18.4487C14.9712 18.7156 15.6535 18.8594 16.3566 18.7688C16.8709 18.7024 17.2984 18.5474 17.6415 18.354C17.9538 18.1783 18.3499 18.2884 18.5261 18.6005C18.7021 18.9128 18.5916 19.3088 18.2796 19.4851C17.7925 19.7596 17.205 19.9693 16.5228 20.0573C15.5408 20.1839 14.6107 19.9813 13.8503 19.6254C13.0986 19.2735 12.4671 18.7497 12.1064 18.1805C11.9145 17.8775 12.0044 17.4766 12.3073 17.2846Z" />
<path d="M14.5269 15.7618C14.6398 15.3622 15.0554 15.1298 15.4551 15.2424C15.8549 15.3552 16.0881 15.7707 15.9754 16.1706L15.8192 16.7239C15.7064 17.1238 15.2909 17.3561 14.891 17.2434C14.4912 17.1305 14.2579 16.715 14.3707 16.3152L14.5269 15.7618Z" />
</svg>
