<svg width="24" height="24" viewBox="0 0 24 24" fill="none" xmlns="http://www.w3.org/2000/svg">
<path d="M10.3808 5.431C10.5936 4.85676 11.4062 4.85679 11.6191 5.431L13.3906 10.2191C13.4575 10.3997 13.6006 10.5429 13.7812 10.6097L18.5693 12.3812C19.1436 12.594 19.1436 13.4067 18.5693 13.6195L13.7812 15.391C13.6006 15.4578 13.4574 15.6009 13.3906 15.7816L11.6191 20.5697C11.4062 21.1437 10.5937 21.1437 10.3808 20.5697L8.60933 15.7816C8.54248 15.6009 8.39936 15.4578 8.21871 15.391L3.43062 13.6195C2.85644 13.4066 2.85648 12.5941 3.43062 12.3812L8.21871 10.6097C8.39932 10.5429 8.54243 10.3997 8.60933 10.2191L10.3808 5.431ZM17.2294 2.18784C17.3228 1.93739 17.6771 1.93739 17.7705 2.18784L18.5459 4.28354C18.5751 4.36255 18.6377 4.4252 18.7168 4.45444L20.8115 5.22983C21.0626 5.32304 21.0627 5.67776 20.8115 5.77084L18.7168 6.54624C18.6377 6.57549 18.5751 6.63808 18.5459 6.71713L17.7705 8.81186C17.6773 9.06283 17.3227 9.06283 17.2294 8.81186L16.4541 6.71713C16.4248 6.63808 16.3622 6.57549 16.2832 6.54624L14.1884 5.77084C13.9372 5.67777 13.9374 5.32306 14.1884 5.22983L16.2832 4.45444C16.3622 4.4252 16.4248 4.36255 16.4541 4.28354L17.2294 2.18784Z" fill="#CFD2DD"/>
</svg>
