<svg width="60" height="60" viewBox="0 0 60 60" fill="none" xmlns="http://www.w3.org/2000/svg">
<circle cx="30" cy="30" r="27.8571" stroke="#FF334B" stroke-width="4.28571"/>
<path d="M21.7906 12.2754C20.5804 12.576 18.6373 12.7718 17.0031 12.8061C16.2427 12.8181 16.0075 12.1154 16.0007 10.9918C15.987 10.0022 16.1724 9.52803 17.144 9.53494C17.6195 9.5298 18.1894 9.51607 18.8142 9.4783L18.725 8.70518C18.6477 7.85474 19.1919 7.76714 20.4004 7.65723C21.6844 7.54045 22.1135 7.65385 22.0877 8.62799L22.0791 9.1623L22.51 9.085C23.8197 8.8325 24.7226 8.92187 25.1672 10.0438C25.6649 11.3323 25.2718 12.8734 24.0478 14.49C24.6761 14.6997 25.3369 14.8492 25.7798 14.9041C26.7617 15.0244 26.978 15.3097 26.8337 16.447C26.6809 17.6994 26.4097 18.0671 25.6218 17.9863C24.6021 17.8695 23.313 17.5103 22.52 17.1633C22.2419 17.0361 21.9827 16.9073 21.7939 16.7148C20.6746 17.5979 19.322 18.4259 17.9556 18.8932C17.1247 19.1783 16.7729 18.8674 16.3232 17.6888C15.9249 16.6579 15.9816 16.2336 16.9 15.8642C19.032 15.0224 21.3563 13.3629 21.8799 12.4197C21.9296 12.339 21.9588 12.241 21.7906 12.2754ZM31.211 16.43C31.3774 17.6343 30.5758 17.8216 29.575 17.9126C28.5743 18.0036 27.8739 18.0483 27.7074 16.8439C27.4071 14.5847 27.1051 11.2585 26.9765 8.7931C26.9061 7.38945 27.5859 7.11802 28.5867 7.027C29.5874 6.93598 30.3942 7.01504 30.4663 8.22799L30.6224 10.5766L31.7742 10.4718C32.6428 10.3928 32.8848 10.9615 32.9757 11.9631C33.0667 12.9647 32.9311 13.5678 32.0625 13.6468L30.9107 13.7515L31.211 16.43ZM19.0436 25.6348C19.0008 24.1144 18.8858 22.8481 18.637 21.1559C18.4516 19.9532 19.3116 19.5701 20.3124 19.4791C21.181 19.4001 21.8298 19.4173 22.1096 20.1922C22.2504 19.6458 22.6332 19.4586 23.3524 19.4122C23.9961 19.3727 26.9212 19.0876 28.5948 18.8592C30.4951 18.6101 31.7344 19.2596 31.9094 21.1873C31.9678 21.8298 32.0192 22.3968 31.6862 22.9225C32.0089 23.1218 32.2406 23.5771 32.3007 24.2385C32.3848 25.1646 32.1221 25.8363 30.9325 25.9445L23.9461 26.5799C23.3419 26.6349 22.8904 26.4854 22.578 26.1899C22.3462 26.7826 21.7489 26.9132 20.9936 26.9818C19.9928 27.0729 19.0779 26.8512 19.0436 25.6348ZM22.4014 21.9377L22.5712 23.8087C22.7669 23.6575 23.0055 23.5596 23.2888 23.5338L28.6324 23.0478C28.7337 22.9052 28.7766 22.7489 28.7526 22.4843C28.732 22.0479 28.3166 21.8761 27.8652 21.9362C26.3237 22.1526 23.8141 22.3999 23.318 22.3879C22.9163 22.3672 22.6159 22.204 22.4014 21.9377Z" fill="#FF334B"/>
<path d="M39.8252 14.9953C38.4569 14.8428 36.6851 14.4818 35.2874 14.0066C34.5623 13.7546 34.35 13.1912 34.6806 12.1732C35.0561 11.0332 35.4902 10.8186 36.417 11.1283C37.669 11.5567 39.5118 11.9501 41.2652 12.121C42.5999 12.2483 43.7137 12.5941 43.7713 14.0789C43.8403 15.5099 43.1023 16.4306 41.7249 17.4329C42.203 17.7491 42.7971 18.0691 43.3651 18.3281C44.1124 18.659 44.138 19.093 43.6355 20.0965C43.1592 21.0677 42.6764 21.3289 41.9478 21.0016C40.8455 20.5088 39.878 19.8368 39.2694 19.2156C39.1574 19.1007 39.0641 18.9894 38.9895 18.8817C37.6763 19.3928 36.1764 19.7745 34.9123 19.9593C34.0708 20.0765 33.4355 19.8605 33.1156 18.6981C32.7622 17.4173 33.2452 16.9697 34.2064 16.8383C36.3867 16.5507 38.8107 15.8439 39.9633 15.1712C40.0943 15.1032 39.9972 15.0099 39.8252 14.9953ZM48.0196 21.354C47.8347 22.5121 47.0084 22.4644 46.0178 22.273C45.0273 22.0816 44.3395 21.93 44.5244 20.7719C44.8828 18.6027 45.4325 15.9854 45.9777 13.8523C46.2748 12.7158 47.0077 12.6523 47.9983 12.8437C48.9889 13.0351 49.7625 13.3338 49.4654 14.4702L49.0366 16.2341L50.1767 16.4544C51.0365 16.6205 51.1067 17.2123 50.9071 18.1624C50.7076 19.1126 50.4039 19.6322 49.5442 19.466L48.4041 19.2457L48.0196 21.354ZM37.3703 26.6833C37.2352 27.0489 37.2238 27.196 37.9863 27.3619C40.4047 27.8852 44.2628 28.4068 45.3733 28.3975C46.3866 28.3881 46.8126 28.5823 46.8783 29.6583C46.9296 30.433 46.9213 30.9351 45.878 30.9947C44.1841 31.0964 36.9658 29.7204 34.8803 29.0936C33.1237 28.5676 32.9345 27.5237 33.4374 26.2405L33.824 25.2333C33.6038 24.9855 33.6266 24.6915 33.7805 24.3295C34.0431 23.7273 34.3873 23.57 35.7478 23.9448C37.8446 24.5178 40.7528 25.117 43.0893 25.382C43.5126 24.8482 43.0791 24.6898 42.1669 24.5882C40.6865 24.414 36.8476 23.6163 35.4012 23.1876C34.4294 22.9066 33.9924 22.5797 34.3903 21.5187C34.6493 20.8412 35.0085 20.6121 36.0215 20.8825C37.9763 21.3908 42.1218 22.2104 43.9724 22.3814C46.7764 22.6434 47.7734 23.5449 46.7303 26.0108C46.8199 26.1401 46.8794 26.3195 46.8754 26.5239C46.8703 27.4742 46.4286 27.8179 45.1798 27.7445C42.7421 27.5907 39.8674 27.1098 37.4229 26.5256L37.3703 26.6833Z" fill="#FF334B"/>
<path d="M8.06095 26.9989C8.44389 27.0936 8.93781 27.2047 9.45298 27.3001C9.51613 26.8747 9.56831 26.5233 9.61976 26.304C9.79882 25.4799 10.3962 25.5308 11.2101 25.6516C12.0239 25.7724 12.6816 25.9268 12.5183 26.7722L12.368 27.6573C12.8941 27.6787 13.3648 27.6918 13.7854 27.6597C14.796 27.6018 15.2337 27.8369 15.2601 28.805C15.307 29.8895 15.1274 30.3355 14.0634 30.4989L13.8914 30.5112C14.2687 31.1532 14.4096 31.987 14.2558 33.0228C13.9044 35.3904 11.9939 36.5436 9.77433 36.214C7.55471 35.8845 6.13568 34.2371 6.48717 31.8695C6.62447 30.9447 6.93503 30.2535 7.36885 29.7508L7.11538 29.6753C6.28924 29.3825 6.16888 28.6652 6.4569 27.7438C6.75244 26.8992 6.98886 26.7074 8.06095 26.9989ZM10.2527 33.3738C10.8446 33.4616 11.3407 33.1761 11.5027 32.0848C11.662 31.012 11.273 30.5761 10.6811 30.4883C10.1262 30.4059 9.59033 30.7044 9.43107 31.7772C9.26356 32.9055 9.6978 33.2914 10.2527 33.3738ZM21.5311 36.863C21.4109 38.055 20.747 38.0699 19.7667 37.9243C18.7863 37.7788 18.4376 37.7081 18.5579 36.5161C18.65 35.6412 18.7935 34.5472 18.9425 33.4161L18.1471 33.2981L17.8127 35.9328C17.6924 37.1249 17.121 37.1535 16.1407 37.0079C15.1604 36.8624 14.7192 36.778 14.8395 35.586C15.0765 33.3526 15.5598 30.0972 15.9818 27.8913C16.213 26.7157 16.6872 26.5782 17.6675 26.7237C18.6478 26.8692 19.1808 27.0996 18.9495 28.2752L18.6084 30.1906L19.4223 30.3114L19.7551 28.4515C19.9864 27.2759 20.368 27.1246 21.3484 27.2702C22.3287 27.4157 22.9541 27.6598 22.7229 28.8353C22.3009 31.0412 21.7681 34.6296 21.5311 36.863ZM18.6524 45.8122C18.0181 45.2455 17.2491 44.1861 16.8533 43.5413C16.8088 43.459 16.767 43.3583 16.7595 43.2816C15.9961 44.0946 15.1909 44.8068 14.5248 45.2184C13.8828 45.5957 13.3224 45.5503 12.4649 44.7046C11.7231 43.9706 11.5698 43.4753 11.7967 43.093C11.633 43.0498 11.472 42.9881 11.322 42.8524C11.0878 42.6475 10.8433 42.3844 10.6043 42.0842C9.88604 42.8472 9.14182 43.5307 8.47578 43.9422C7.83098 44.338 7.27058 44.2926 6.41584 43.4285C5.3796 42.3861 5.49898 41.8367 6.18901 41.3909C7.64854 40.4733 9.39408 38.5206 9.98976 37.437C10.3503 36.7911 10.8834 36.511 12.0403 37.2499C13.0445 37.8716 13.169 38.306 12.8133 39.0472C12.7063 39.2581 12.5781 39.4849 12.4287 39.7273C12.8047 40.1234 13.1807 40.5195 13.4177 40.706C13.7047 40.9376 13.8409 41.1658 13.8265 41.3905C14.8763 40.431 15.8612 39.2728 16.2512 38.5556C16.6118 37.9097 17.1449 37.6296 18.3018 38.3685C19.3059 38.9902 19.4305 39.4246 19.0747 40.1658C18.8793 40.5905 18.5592 41.0912 18.1597 41.6179C18.5283 41.4269 18.9277 41.4105 19.2482 41.7984C19.6632 42.3137 20.544 43.2574 20.9255 43.6165C21.4885 44.1538 21.2321 44.6072 20.6681 45.223C19.9656 46.0072 19.2921 46.342 18.6524 45.8122Z" fill="#FF334B"/>
<path d="M24.2731 41.9794C23.8723 44.9595 24.3593 45.743 25.241 45.8616C26.1403 45.9826 26.8523 45.3602 27.2531 42.3802C27.6539 39.4002 27.1316 38.6118 26.2323 38.4909C25.7562 38.4269 25.3998 38.5405 25.0099 39.1703C24.6448 39.7495 23.9442 39.6194 23.0957 39.2539C22.4046 39.0533 21.9773 38.4931 22.2885 37.781C23.076 35.9301 24.6842 35.0513 26.6768 35.3193C29.5687 35.7082 31.0142 38.3082 30.4095 42.8047C29.8047 47.3012 27.7236 49.4269 24.8318 49.038C21.9399 48.6491 20.4944 46.049 21.0991 41.5526C21.3149 39.9479 21.7435 39.4311 22.9459 39.7005C24.3105 40.0995 24.4604 40.5864 24.2731 41.9794ZM34.9365 51.7254C34.8376 52.8611 34.0652 52.8649 33.1306 52.7392C32.196 52.6135 31.546 52.5081 31.6448 51.3725C31.7986 49.562 32.1001 47.0534 32.4416 44.5142L31.5423 44.3932C30.7311 44.2841 30.6283 43.7138 30.754 42.7792C30.8797 41.8447 31.1295 41.3218 31.9407 41.4308L32.84 41.5518C33.1114 39.6674 33.3861 37.8912 33.6417 36.5253C33.8463 35.4038 34.5248 35.2976 35.4594 35.4233C36.394 35.549 37.1332 35.792 36.9286 36.9135C36.2305 40.7691 35.2819 47.8224 34.9365 51.7254Z" fill="#FF334B"/>
<path d="M44.7868 34.6453C44.7488 35.7082 44.3628 35.8645 43.435 35.8418C41.6131 35.796 40.6953 36.6164 40.7061 37.5269C40.7161 38.37 41.2334 39.3251 43.7627 39.2951C46.3763 39.2641 46.7698 38.315 46.7951 37.6064C46.8204 36.8978 46.5101 36.3281 45.782 36.0838C45.1047 35.8557 45.1154 35.3328 45.2903 34.4369C45.4324 33.6257 45.7147 33.2514 46.9149 33.4901C48.5207 33.8083 49.9869 35.1401 50.0161 37.6019C50.0491 40.3841 48.1635 42.0761 43.7963 42.1279C39.4291 42.1797 37.5032 40.4824 37.4694 37.6328C37.4356 34.7831 39.4545 32.9547 43.5037 33.109C44.5161 33.1476 44.8079 33.5826 44.7868 34.6453ZM39.581 43.6114C39.5718 42.8358 40.1937 42.6597 41.1379 42.6485C42.0822 42.6373 42.7079 42.7817 42.7173 43.5742L42.7357 45.1255L45.0986 45.2829L45.078 43.5462C45.0687 42.7705 45.6906 42.5945 46.6349 42.5833C47.5792 42.5721 48.2049 42.7164 48.2143 43.5089L48.2365 45.3806C48.911 45.3726 49.5174 45.3148 50.1738 45.2058C51.0994 45.0431 51.4758 45.4939 51.5382 46.4882C51.5809 47.2466 51.554 47.8203 50.7466 47.9985C49.1991 48.3373 47.5974 48.3732 43.8326 48.03C41.638 47.8368 39.7834 47.8757 37.6457 48.2215C36.6358 48.3852 36.1751 47.9354 36.1633 46.9405C36.1543 46.1817 36.1979 45.591 37.1737 45.3939C37.7624 45.2688 38.5537 45.1583 39.5988 45.1121L39.581 43.6114Z" fill="#FF334B"/>
</svg>
