<svg width="60" height="60" viewBox="0 0 60 60" fill="none" xmlns="http://www.w3.org/2000/svg">
<circle cx="30" cy="30" r="27.8571" stroke="#3E89EA" stroke-width="4.28571"/>
<path d="M17.5841 15.4658C17.5646 15.9929 17.7403 16.2663 18.248 16.3249C20.4738 16.5787 24.1249 16.4225 26.3703 15.9929C27.4832 15.7782 27.8932 16.2077 27.9909 17.2035C28.108 18.3945 27.9909 19.0388 26.9951 19.2341C24.2226 19.7612 19.5756 19.8979 16.3345 19.4488C14.7921 19.2341 13.933 18.3945 13.972 16.7544C14.0111 14.9581 14.0501 12.4004 13.9525 10.4088C13.8939 9.39354 14.5578 9.04209 15.7683 9.00304C17.1741 8.96399 17.5255 9.29591 17.5841 10.3112C17.6622 11.8341 17.6232 13.8452 17.5841 15.4658ZM19.1266 21.2256C19.1266 20.3275 19.849 20.1322 20.9424 20.1322C22.0358 20.1322 22.7582 20.3079 22.7582 21.2256V23.0219H22.9144C25.1793 23.1586 26.6046 23.2171 28.2447 22.9633C29.3186 22.7876 29.7481 23.3148 29.8067 24.4667C29.8457 25.3454 29.8067 26.0092 28.8695 26.2044C27.0732 26.5754 25.2183 26.5949 20.8643 26.1459C18.3261 25.892 16.1783 25.9116 13.6987 26.2825C12.5272 26.4583 12 25.9311 12 24.7791C12 23.9005 12.0586 23.2171 13.191 23.0024C14.343 22.7876 16.1002 22.5923 18.8923 22.729L19.1266 22.7485V21.2256Z" fill="#3E89EA"/>
<path d="M32.3178 13.6854C33.506 14.0009 35.3527 14.1758 36.8818 14.1673C37.1094 13.3243 36.8598 13.2641 36.1333 13.2814C35.0729 13.3097 32.7252 13.0339 31.8661 12.7657C30.9502 12.4731 30.6763 12.2345 30.9173 11.0008C31.1566 9.78653 31.6593 9.63288 32.658 9.87363C33.6371 10.1127 35.1676 10.3199 36.7712 10.3568C39.6071 10.419 40.7841 10.6355 40.0498 14.4729C40.1519 14.6579 40.2311 14.8801 40.2633 15.1963C40.3808 16.3622 40.0853 16.8468 38.8237 16.9366C37.3043 17.0635 35.4673 17.007 33.8006 16.7884C33.6575 17.325 33.9508 17.5652 34.6252 17.7003C35.6677 17.8859 38.0382 17.8894 39.1394 17.6097C40.0784 17.3948 40.4559 17.7989 40.6481 18.7751C40.8257 19.6914 40.6404 20.2636 39.5993 20.5287C37.8964 20.9733 34.7298 20.8833 32.6158 20.392C30.5585 19.925 29.7666 18.624 30.1945 16.7986L30.4092 15.8761C30.1014 15.5759 30.0807 15.1235 30.2645 14.3356C30.5003 13.3954 30.8993 13.3114 32.3178 13.6854ZM46.226 20.7138C46.1796 21.9639 45.3332 22.0103 44.302 21.9236C43.2708 21.8368 42.5526 21.7568 42.599 20.5067L42.6697 19.1999L41.6969 19.1181C40.8019 19.0428 40.7472 18.5287 40.8339 17.4976C40.9206 16.4664 41.0605 15.9687 41.9555 16.044L42.8894 16.1225L42.9745 15.1108L42.0406 15.0323C41.1456 14.957 41.0908 14.4429 41.1776 13.4118C41.2643 12.3806 41.4041 11.8829 42.2991 11.9582L43.2914 12.0417L43.3534 11.5374C43.5165 10.2971 44.2544 10.1437 45.2856 10.2304C46.3167 10.3172 47.1403 10.5432 46.9772 11.7835C46.6835 14.11 46.3251 18.3709 46.226 20.7138ZM42.2831 26.3583C42.3498 26.0308 42.2171 25.7453 41.8636 25.7548C39.2725 25.8112 35.5093 25.5926 32.6301 24.8801C31.4791 24.5874 31.3693 24.0295 31.6133 22.992C31.8573 21.9544 32.2906 21.4619 33.5795 21.7466C36.5024 22.404 39.6107 22.4891 42.4353 22.4523C45.2404 22.414 46.2903 23.4428 46.049 25.1467C45.9007 26.2119 45.7439 27.6095 45.7348 28.8823C45.7325 29.8422 44.8924 30.0459 43.725 29.9477C42.5577 29.8495 42.1136 29.5378 42.116 28.5779C42.1151 27.6569 42.2131 26.7247 42.2831 26.3583Z" fill="#3E89EA"/>
<path d="M8.60448 28.9748L9.48619 29.2163C9.54244 28.716 9.63181 28.2409 9.73945 27.7692C9.94894 26.9571 10.7234 27.0649 11.5457 27.2196C12.3498 27.3708 13.0522 27.5597 12.8393 28.39L12.5221 29.6738L13.4085 29.6891C14.4149 29.6703 14.9483 29.7517 14.95 30.8494C14.9573 32.1185 14.7011 32.6758 13.6513 32.7243C11.65 32.802 9.18741 32.4146 7.30872 31.7396C6.47731 31.4318 6.32801 30.8172 6.77307 29.5575C7.11174 28.5616 7.53206 28.6407 8.60448 28.9748ZM8.70904 42.2014C6.07748 41.7065 5.22302 39.7104 5.75233 36.8961C6.26102 34.1915 7.79945 32.5509 10.431 33.0458C12.8981 33.5098 13.8998 35.6282 13.3912 38.3328C12.8618 41.1471 11.3589 42.6998 8.70904 42.2014ZM9.28647 39.1313C9.9809 39.2619 10.4609 38.8224 10.65 37.8173C10.8184 36.9218 10.548 36.2466 9.85358 36.1159C9.17742 35.9888 8.66195 36.5162 8.49354 37.4117C8.3045 38.4168 8.6103 39.0041 9.28647 39.1313ZM20.4612 45.8119C20.3304 46.8091 19.653 46.8898 18.6844 46.7076C17.7159 46.5254 17.2979 46.3333 17.4287 45.3362C17.6982 43.4001 18.1383 40.7583 18.6401 38.0902L17.5436 37.8839C17.0831 40.3327 16.6842 42.7553 16.4181 44.6731C16.2873 45.6702 15.7013 45.7681 14.7327 45.586C13.7642 45.4038 13.2548 45.1945 13.3856 44.1973C13.9579 40.0477 15.2021 33.4323 16.1765 29.3583C16.4169 28.3817 17.0019 28.189 17.9704 28.3712C18.939 28.5534 19.4426 28.894 19.2021 29.8706C18.8609 31.2822 18.4979 33.0115 18.1393 34.8172L19.2175 35.02C19.6253 33.0532 20.0124 31.1961 20.357 29.7661C20.5975 28.7896 21.0911 28.5797 22.0596 28.7619C23.0282 28.944 23.6231 29.3019 23.3827 30.2784C22.4083 34.3524 21.0335 41.6623 20.4612 45.8119Z" fill="#3E89EA"/>
<path d="M31.9829 44.2384C31.9704 45.444 31.1581 45.6737 30.1666 45.5859C29.437 45.5213 28.9182 45.4188 28.701 44.8905C27.3583 45.1487 25.7362 45.1558 24.3397 44.9567C22.7001 44.7361 22.3593 43.6877 22.3114 42.0997C22.2831 40.9282 22.4753 38.7581 22.7831 36.5605C22.9254 35.5927 23.3855 35.2941 24.5487 35.3594C25.8054 35.433 26.3385 35.8007 26.1775 36.7669C25.8908 38.5138 25.7753 40.0308 25.7997 41.0323C25.8133 41.7311 25.8973 42.0591 26.348 42.0801C26.9483 42.1145 27.8749 42.0834 28.7163 41.9505L28.797 40.8264L27.1133 40.6773C26.2527 40.601 26.1087 40.0981 26.1966 39.1066C26.2844 38.115 26.5178 37.6078 27.3784 37.684L29.1182 37.8381L29.2252 37.0557C29.4248 35.8667 30.0334 35.8075 31.0249 35.8953C32.2035 35.9997 32.757 36.3503 32.5761 37.541C32.34 39.1416 32.0039 42.2983 31.9829 44.2384ZM36.3106 52.4275C36.2607 53.6298 35.5399 53.6791 34.5483 53.5913C33.5568 53.5034 32.9598 53.4317 33.0098 52.2294C33.1872 48.0971 33.8533 40.5766 34.4049 36.4774C34.5671 35.2851 35.1839 35.1324 36.1755 35.2202C37.167 35.308 37.8646 35.5206 37.7024 36.7129C37.4884 38.2778 37.2704 40.3136 37.0595 42.4821L38.051 42.5699C38.9116 42.6461 39.0473 43.2426 38.9595 44.2341C38.8717 45.2256 38.6332 45.789 37.7726 45.7128L36.7811 45.625C36.5574 48.1505 36.3949 50.6249 36.3106 52.4275ZM31.4441 47.9805C32.1616 47.9686 32.7029 48.2428 32.7328 49.3956C32.7622 50.3409 32.4693 50.8806 31.8965 50.9619C30.8477 51.0952 28.4938 50.849 26.5906 50.6239C24.7622 50.4054 23.5038 50.3505 22.2866 50.469C21.6015 50.5403 21.009 50.205 20.9571 49.0879C20.9194 48.2362 21.2085 47.5264 21.8749 47.4535C22.9017 47.3559 24.126 47.37 25.3827 47.4436L25.4689 46.4708C25.5451 45.6103 26.2082 45.5747 27.2558 45.6675C28.3034 45.7603 28.8393 45.8832 28.7615 46.7624L28.6703 47.7914C29.7724 47.9078 30.7265 47.9923 31.4441 47.9805Z" fill="#3E89EA"/>
<path d="M47.034 32.7104C47.1448 33.878 46.7451 34.1042 45.7274 34.2123C43.7289 34.4232 42.8429 35.4517 42.9852 36.4457C43.1169 37.3661 43.8193 38.3363 46.5805 37.9411C49.4336 37.5327 49.7279 36.4386 49.654 35.6602C49.5802 34.8819 49.1593 34.3034 48.3282 34.1406C47.555 33.9883 47.4918 33.415 47.5546 32.4104C47.5938 31.5032 47.8488 31.0534 49.1952 31.1425C50.9966 31.2603 52.7905 32.5063 53.1751 35.1938C53.6099 38.2311 51.7907 40.3511 47.0231 41.0335C42.2556 41.7159 39.9068 40.1361 39.4615 37.0252C39.0162 33.9144 40.9616 31.6259 45.411 31.2145C46.5234 31.1116 46.9048 31.5454 47.034 32.7104ZM42.6268 43.2595C42.5056 42.4127 43.1603 42.1312 44.1911 41.9836C45.222 41.8361 45.9267 41.9043 46.0506 42.7694L46.293 44.4629L48.899 44.2965L48.6276 42.4006C48.5064 41.5538 49.1612 41.2723 50.192 41.1247C51.2228 40.9772 51.9276 41.0453 52.0514 41.9105L52.3439 43.9537C53.0802 43.8483 53.7349 43.6983 54.437 43.4851C55.4257 43.1745 55.9018 43.6135 56.1125 44.6917C56.2679 45.5147 56.3207 46.1459 55.4634 46.4564C53.82 47.0485 52.0739 47.3172 47.9085 47.4814C45.4812 47.5846 43.459 47.8929 41.1713 48.5772C40.0906 48.901 39.5225 48.4751 39.367 47.3891C39.2485 46.5607 39.2115 45.9086 40.2501 45.5533C40.8759 45.3322 41.7253 45.0979 42.8613 44.8978L42.6268 43.2595Z" fill="#3E89EA"/>
</svg>
