<svg width="32" height="32" viewBox="0 0 32 32" fill="none" xmlns="http://www.w3.org/2000/svg">
<path d="M11.554 29.1247C15.726 29.1247 19.1081 25.7426 19.1081 21.5706C19.1081 17.3987 15.726 14.0166 11.554 14.0166C7.38206 14.0166 4 17.3987 4 21.5706C4 25.7426 7.38206 29.1247 11.554 29.1247Z" fill="#CFD2DD"/>
<path d="M27.0694 4.62207C28.6505 6.06946 28.759 8.52734 27.3116 10.1084L11.5696 27.3047L5.84099 22.0606L21.583 4.8643C23.0304 3.2832 25.4883 3.17468 27.0694 4.62207Z" fill="#CFD2DD"/>
<path d="M11.5539 26.0454C14.0253 26.0454 16.0288 24.0419 16.0288 21.5705C16.0288 19.0992 14.0253 17.0957 11.5539 17.0957C9.08255 17.0957 7.0791 19.0992 7.0791 21.5705C7.0791 24.0419 9.08255 26.0454 11.5539 26.0454Z" fill="#FF334B"/>
<path d="M24.8593 7.03551C25.3801 7.51225 25.4158 8.32168 24.9391 8.84246L19.2606 15.0455L17.3744 13.3188L23.0534 7.11524C23.5301 6.59446 24.3396 6.55872 24.8604 7.03546L24.8593 7.03551Z" fill="#F3F3F5"/>
<path d="M20.5815 11.7098C21.1023 12.1865 21.138 12.9959 20.6613 13.5167L13.6723 21.1513L11.7861 19.4247L18.7751 11.79C19.2518 11.2693 20.0607 11.233 20.5815 11.7098Z" fill="#FF334B"/>
</svg>
