<svg width="32" height="32" viewBox="0 0 32 32" fill="none" xmlns="http://www.w3.org/2000/svg">
<path d="M10.9924 23.2058C11.2536 22.1865 12.1722 21.4736 13.2245 21.4736H19.1174C20.2116 21.4736 21.1549 22.2432 21.3747 23.3151L22.1559 27.1252C22.4488 28.5541 21.3572 29.8923 19.8986 29.8923H12.2481C10.7434 29.8923 9.64239 28.4736 10.0159 27.016L10.9924 23.2058Z" fill="#8F94A9"/>
<rect x="6.42334" y="4.66016" width="19.1533" height="12.4911" rx="2.30425" fill="#B0B4C1"/>
<ellipse cx="16.0006" cy="10.9057" rx="7.71008" ry="8.79733" fill="#DEE0E8"/>
<mask id="mask0_1_4059" style="mask-type:alpha" maskUnits="userSpaceOnUse" x="8" y="2" width="16" height="18">
<ellipse cx="16.0004" cy="10.9057" rx="7.71008" ry="8.79733" fill="#BDC3C7"/>
</mask>
<g mask="url(#mask0_1_4059)">
<ellipse cx="16.0001" cy="19.4248" rx="10.8107" ry="4.55765" fill="#B0B4C1"/>
</g>
<path d="M24.8056 19.4932C24.8056 23.3025 20.8631 26.3906 15.9997 26.3906C11.1364 26.3906 7.19385 23.3025 7.19385 19.4932L15.9997 19.4932L24.8056 19.4932Z" fill="#B0B4C1"/>
<ellipse cx="15.9997" cy="19.4253" rx="8.80588" ry="3.71245" fill="#DEE0E8"/>
<ellipse cx="15.9996" cy="19.3122" rx="5.46199" ry="1.63638" fill="#898EA3"/>
<path d="M13.0664 4.38623C12.2207 4.96021 10.6433 6.66977 10.2119 8.19287" stroke="white" stroke-linecap="round"/>
</svg>
