<svg viewBox="0 0 21 20" xmlns="http://www.w3.org/2000/svg">
<mask id="mask0_420_30639" style="mask-type:alpha" maskUnits="userSpaceOnUse" x="0" y="0" width="21" height="20">
<rect x="0.5" width="20" height="20"/>
</mask>
<g mask="url(#mask0_420_30639)">
<path d="M10.5001 14.167C10.7362 14.167 10.9341 14.0871 11.0938 13.9274C11.2536 13.7677 11.3334 13.5698 11.3334 13.3337C11.3334 13.0975 11.2536 12.8996 11.0938 12.7399C10.9341 12.5802 10.7362 12.5003 10.5001 12.5003C10.264 12.5003 10.0661 12.5802 9.90633 12.7399C9.74661 12.8996 9.66675 13.0975 9.66675 13.3337C9.66675 13.5698 9.74661 13.7677 9.90633 13.9274C10.0661 14.0871 10.264 14.167 10.5001 14.167ZM10.5001 10.8337C10.7362 10.8337 10.9341 10.7538 11.0938 10.5941C11.2536 10.4344 11.3334 10.2364 11.3334 10.0003V6.66699C11.3334 6.43088 11.2536 6.23296 11.0938 6.07324C10.9341 5.91352 10.7362 5.83366 10.5001 5.83366C10.264 5.83366 10.0661 5.91352 9.90633 6.07324C9.74661 6.23296 9.66675 6.43088 9.66675 6.66699V10.0003C9.66675 10.2364 9.74661 10.4344 9.90633 10.5941C10.0661 10.7538 10.264 10.8337 10.5001 10.8337ZM10.5001 18.3337C9.3473 18.3337 8.26397 18.1149 7.25008 17.6774C6.23619 17.2399 5.35425 16.6462 4.60425 15.8962C3.85425 15.1462 3.2605 14.2642 2.823 13.2503C2.3855 12.2364 2.16675 11.1531 2.16675 10.0003C2.16675 8.84755 2.3855 7.76421 2.823 6.75033C3.2605 5.73644 3.85425 4.85449 4.60425 4.10449C5.35425 3.35449 6.23619 2.76074 7.25008 2.32324C8.26397 1.88574 9.3473 1.66699 10.5001 1.66699C11.6529 1.66699 12.7362 1.88574 13.7501 2.32324C14.764 2.76074 15.6459 3.35449 16.3959 4.10449C17.1459 4.85449 17.7397 5.73644 18.1772 6.75033C18.6147 7.76421 18.8334 8.84755 18.8334 10.0003C18.8334 11.1531 18.6147 12.2364 18.1772 13.2503C17.7397 14.2642 17.1459 15.1462 16.3959 15.8962C15.6459 16.6462 14.764 17.2399 13.7501 17.6774C12.7362 18.1149 11.6529 18.3337 10.5001 18.3337ZM10.5001 16.667C12.3612 16.667 13.9376 16.0212 15.2292 14.7295C16.5209 13.4378 17.1667 11.8614 17.1667 10.0003C17.1667 8.13921 16.5209 6.56283 15.2292 5.27116C13.9376 3.97949 12.3612 3.33366 10.5001 3.33366C8.63897 3.33366 7.06258 3.97949 5.77092 5.27116C4.47925 6.56283 3.83341 8.13921 3.83341 10.0003C3.83341 11.8614 4.47925 13.4378 5.77092 14.7295C7.06258 16.0212 8.63897 16.667 10.5001 16.667Z" fill="#FFE54F"/>
</g>
</svg>
