<svg width="25" height="24" viewBox="0 0 25 24" fill="none" xmlns="http://www.w3.org/2000/svg">
<mask id="mask0_1_5929" style="mask-type:alpha" maskUnits="userSpaceOnUse" x="0" y="0" width="25" height="24">
<rect x="0.0566406" width="24" height="24" fill="#D9D9D9"/>
</mask>
<g mask="url(#mask0_1_5929)">
<path d="M12.0566 17C12.34 17 12.5775 16.9042 12.7691 16.7125C12.9608 16.5208 13.0566 16.2833 13.0566 16C13.0566 15.7167 12.9608 15.4792 12.7691 15.2875C12.5775 15.0958 12.34 15 12.0566 15C11.7733 15 11.5358 15.0958 11.3441 15.2875C11.1525 15.4792 11.0566 15.7167 11.0566 16C11.0566 16.2833 11.1525 16.5208 11.3441 16.7125C11.5358 16.9042 11.7733 17 12.0566 17ZM12.0566 13C12.34 13 12.5775 12.9042 12.7691 12.7125C12.9608 12.5208 13.0566 12.2833 13.0566 12V8C13.0566 7.71667 12.9608 7.47917 12.7691 7.2875C12.5775 7.09583 12.34 7 12.0566 7C11.7733 7 11.5358 7.09583 11.3441 7.2875C11.1525 7.47917 11.0566 7.71667 11.0566 8V12C11.0566 12.2833 11.1525 12.5208 11.3441 12.7125C11.5358 12.9042 11.7733 13 12.0566 13ZM12.0566 22C10.6733 22 9.37331 21.7375 8.15664 21.2125C6.93997 20.6875 5.88164 19.975 4.98164 19.075C4.08164 18.175 3.36914 17.1167 2.84414 15.9C2.31914 14.6833 2.05664 13.3833 2.05664 12C2.05664 10.6167 2.31914 9.31667 2.84414 8.1C3.36914 6.88333 4.08164 5.825 4.98164 4.925C5.88164 4.025 6.93997 3.3125 8.15664 2.7875C9.37331 2.2625 10.6733 2 12.0566 2C13.44 2 14.74 2.2625 15.9566 2.7875C17.1733 3.3125 18.2316 4.025 19.1316 4.925C20.0316 5.825 20.7441 6.88333 21.2691 8.1C21.7941 9.31667 22.0566 10.6167 22.0566 12C22.0566 13.3833 21.7941 14.6833 21.2691 15.9C20.7441 17.1167 20.0316 18.175 19.1316 19.075C18.2316 19.975 17.1733 20.6875 15.9566 21.2125C14.74 21.7375 13.44 22 12.0566 22ZM12.0566 20C14.29 20 16.1816 19.225 17.7316 17.675C19.2816 16.125 20.0566 14.2333 20.0566 12C20.0566 9.76667 19.2816 7.875 17.7316 6.325C16.1816 4.775 14.29 4 12.0566 4C9.82331 4 7.93164 4.775 6.38164 6.325C4.83164 7.875 4.05664 9.76667 4.05664 12C4.05664 14.2333 4.83164 16.125 6.38164 17.675C7.93164 19.225 9.82331 20 12.0566 20Z" fill="#1C1B1F"/>
</g>
</svg>
