<svg width="32" height="32" viewBox="0 0 32 32" fill="none" xmlns="http://www.w3.org/2000/svg">
<path d="M16.5596 3.73692C16.4905 3.65619 16.4047 3.59137 16.3082 3.54694C16.2116 3.5025 16.1066 3.47949 16.0003 3.47949C15.894 3.47949 15.789 3.5025 15.6924 3.54694C15.5959 3.59137 15.5101 3.65619 15.441 3.73692C13.4982 6.00923 7.16357 13.8651 7.16357 19.6842C7.16357 25.107 10.5779 28.5206 16 28.5206C21.4221 28.5206 24.8364 25.107 24.8364 19.6842C24.8364 13.8651 18.5018 6.00923 16.5596 3.73692ZM16.9818 25.3297C16.8639 25.33 16.7476 25.3019 16.6428 25.2478C16.5379 25.1938 16.4476 25.1154 16.3794 25.0191C16.3112 24.9229 16.2671 24.8117 16.2509 24.6949C16.2346 24.5781 16.2466 24.4591 16.286 24.3479C16.3362 24.2028 16.4309 24.0772 16.5566 23.9891C16.6823 23.901 16.8326 23.8547 16.9861 23.857C17.9608 23.8549 18.895 23.4667 19.5842 22.7775C20.2734 22.0883 20.6616 21.1541 20.6637 20.1794C20.6614 20.0259 20.7077 19.8756 20.7958 19.7499C20.8839 19.6242 21.0095 19.5295 21.1546 19.4793C21.2658 19.4399 21.3848 19.4279 21.5016 19.4442C21.6184 19.4604 21.7296 19.5045 21.8258 19.5727C21.9221 19.6409 22.0005 19.7312 22.0545 19.8361C22.1086 19.9409 22.1367 20.0572 22.1364 20.1751C22.1349 21.5418 21.5914 22.852 20.6251 23.8184C19.6587 24.7847 18.3485 25.3282 16.9818 25.3297Z" fill="#88C5FF"/>
</svg>
