<svg width="36" height="36" viewBox="0 0 36 36" fill="none" xmlns="http://www.w3.org/2000/svg">
<mask id="mask0_8_9612" style="mask-type:alpha" maskUnits="userSpaceOnUse" x="4" y="4" width="28" height="28">
<rect x="4.20142" y="4.19629" width="27.5809" height="27.5809" fill="#D9D9D9"/>
</mask>
<g mask="url(#mask0_8_9612)">
<path d="M14.5442 22.8732C14.142 22.8732 13.802 22.7343 13.5243 22.4566C13.2466 22.1789 13.1077 21.8389 13.1077 21.4367C13.1077 21.0345 13.2466 20.6945 13.5243 20.4168C13.802 20.1391 14.142 20.0002 14.5442 20.0002C14.9465 20.0002 15.2864 20.1391 15.5642 20.4168C15.8419 20.6945 15.9807 21.0345 15.9807 21.4367C15.9807 21.8389 15.8419 22.1789 15.5642 22.4566C15.2864 22.7343 14.9465 22.8732 14.5442 22.8732ZM21.4395 22.8732C21.0372 22.8732 20.6973 22.7343 20.4195 22.4566C20.1418 22.1789 20.0029 21.8389 20.0029 21.4367C20.0029 21.0345 20.1418 20.6945 20.4195 20.4168C20.6973 20.1391 21.0372 20.0002 21.4395 20.0002C21.8417 20.0002 22.1816 20.1391 22.4594 20.4168C22.7371 20.6945 22.876 21.0345 22.876 21.4367C22.876 21.8389 22.7371 22.1789 22.4594 22.4566C22.1816 22.7343 21.8417 22.8732 21.4395 22.8732ZM17.9918 29.4811C20.5584 29.4811 22.7323 28.5905 24.5136 26.8092C26.2948 25.028 27.1855 22.8541 27.1855 20.2875C27.1855 19.8278 27.1567 19.3825 27.0993 18.9516C27.0418 18.5206 26.9365 18.104 26.7832 17.7018C26.381 17.7976 25.9788 17.8694 25.5766 17.9173C25.1744 17.9652 24.753 17.9891 24.3125 17.9891C22.5695 17.9891 20.9223 17.6156 19.3709 16.8686C17.8195 16.1216 16.4979 15.0778 15.4061 13.737C14.7932 15.231 13.917 16.5287 12.7773 17.63C11.6377 18.7313 10.3113 19.5597 8.79823 20.1151V20.2875C8.79823 22.8541 9.68886 25.028 11.4701 26.8092C13.2514 28.5905 15.4253 29.4811 17.9918 29.4811ZM17.9918 31.7795C16.4021 31.7795 14.9082 31.4779 13.51 30.8745C12.1118 30.2712 10.8955 29.4524 9.86124 28.4181C8.82696 27.3838 8.00815 26.1676 7.40482 24.7694C6.80149 23.3712 6.49982 21.8772 6.49982 20.2875C6.49982 19.7321 6.53813 19.1814 6.61474 18.6355C6.69135 18.0897 6.80628 17.5677 6.9595 17.0697C6.13591 16.5717 5.47033 15.8966 4.96276 15.0443C4.4552 14.1919 4.20142 13.2486 4.20142 12.2144C4.20142 10.6246 4.75686 9.27431 5.86776 8.16341C6.97866 7.05252 8.32897 6.49707 9.9187 6.49707C10.9338 6.49707 11.8676 6.74128 12.7199 7.22969C13.5722 7.7181 14.2569 8.39325 14.7741 9.25516C15.2721 9.10193 15.794 8.98701 16.3399 8.9104C16.8857 8.83378 17.4364 8.79548 17.9918 8.79548C19.5816 8.79548 21.0755 9.09714 22.4737 9.70047C23.8719 10.3038 25.0882 11.1226 26.1225 12.1569C27.1567 13.1912 27.9755 14.4074 28.5789 15.8056C29.1822 17.2038 29.4839 18.6978 29.4839 20.2875C29.4839 21.8772 29.1822 23.3712 28.5789 24.7694C27.9755 26.1676 27.1567 27.3838 26.1225 28.4181C25.0882 29.4524 23.8719 30.2712 22.4737 30.8745C21.0755 31.4779 19.5816 31.7795 17.9918 31.7795Z" fill="#898EA3"/>
</g>
</svg>
